<svg width="32" height="24" viewBox="0 0 32 24" fill="none" xmlns="http://www.w3.org/2000/svg">
<mask id="mask0_270_67548" style="mask-type:luminance" maskUnits="userSpaceOnUse" x="0" y="0" width="32" height="24">
<rect width="32" height="24" fill="white"/>
</mask>
<g mask="url(#mask0_270_67548)">
<path fill-rule="evenodd" clip-rule="evenodd" d="M0 0V24H32V0H0Z" fill="#2E42A5"/>
<mask id="mask1_270_67548" style="mask-type:luminance" maskUnits="userSpaceOnUse" x="0" y="0" width="32" height="24">
<path fill-rule="evenodd" clip-rule="evenodd" d="M0 0V24H32V0H0Z" fill="white"/>
</mask>
<g mask="url(#mask1_270_67548)">
<path d="M25.9502 19.714C24.9215 19.714 24.2055 19.4711 23.696 19.0478C23.1842 18.6225 22.8486 17.9888 22.634 17.1443C22.419 16.2984 22.331 15.2634 22.2982 14.0611C22.2752 13.2161 22.2794 12.2991 22.284 11.3158C22.2856 10.9791 22.2872 10.6347 22.2877 10.2827H29.7036C29.8361 12.6901 29.8835 15.0362 29.4122 16.7958C29.1701 17.7 28.7965 18.426 28.2478 18.9257C27.7043 19.4206 26.9662 19.714 25.9502 19.714Z" fill="#6DC2FF" stroke="#F7FCFF" stroke-width="0.5"/>
<mask id="mask2_270_67548" style="mask-type:luminance" maskUnits="userSpaceOnUse" x="22" y="10" width="9" height="10">
<path d="M25.9502 19.714C24.9215 19.714 24.2055 19.4711 23.696 19.0478C23.1842 18.6225 22.8486 17.9888 22.634 17.1443C22.419 16.2984 22.331 15.2634 22.2982 14.0611C22.2752 13.2161 22.2794 12.2991 22.284 11.3158C22.2856 10.9791 22.2872 10.6347 22.2877 10.2827H29.7036C29.8361 12.6901 29.8835 15.0362 29.4122 16.7958C29.1701 17.7 28.7965 18.426 28.2478 18.9257C27.7043 19.4206 26.9662 19.714 25.9502 19.714Z" fill="white" stroke="white" stroke-width="0.5"/>
</mask>
<g mask="url(#mask2_270_67548)">
<path fill-rule="evenodd" clip-rule="evenodd" d="M24.5218 13.587C24.5218 13.587 24.1271 13.2951 23.9579 12.8222C23.7886 12.3493 23.4538 11.0903 23.4538 10.981C23.4538 10.8717 23.0082 10.981 23.0082 10.981C23.0082 10.981 23.0144 10.4486 23.1826 10.4486C23.3507 10.4486 23.357 9.955 23.765 10.0793C24.173 10.2036 24.4938 10.6595 24.9096 10.6595C25.3253 10.6595 27.0633 10.7921 27.3427 10.7921C27.622 10.7921 28.3585 11.3817 28.3585 11.8231C28.3585 12.2645 28.1577 12.9221 27.9997 12.9221C27.8417 12.9221 27.643 13.3047 27.3427 13.1784C27.0424 13.0521 26.3255 12.7921 25.6833 12.9221C25.0412 13.0521 24.9096 12.9704 24.9096 13.1784C24.9096 13.3864 24.5218 13.587 24.5218 13.587Z" fill="#E1E5E8"/>
<path fill-rule="evenodd" clip-rule="evenodd" d="M23.6 13.2787H28.7555L27.8676 14.4262H24.2248L23.6 13.2787Z" fill="#49801E"/>
<path d="M23.5328 18.2956C23.5328 18.2956 24.4238 18.6143 24.7962 18.5756C25.2086 18.5327 25.5737 18.0626 25.8494 18.0626C26.1245 18.0626 26.6542 18.5329 27.0656 18.5756C27.4385 18.6143 28.1659 18.2956 28.1659 18.2956" stroke="white" stroke-width="1.06667"/>
<path d="M22.5543 16.9362C22.8624 16.6754 23.5329 16.6563 23.5329 16.6563C23.5329 16.6563 24.4239 16.975 24.7963 16.9362C25.2087 16.8934 25.5738 16.4232 25.8494 16.4232C26.1245 16.4232 26.6542 16.8935 27.0656 16.9362C27.4385 16.975 28.1659 16.6563 28.1659 16.6563C28.1659 16.6563 28.5724 16.1992 29.0829 16.6818" stroke="white" stroke-width="1.06667"/>
<path d="M22.4607 15.5298L21.7864 14.7033C22.0508 14.4875 22.4948 14.2749 23.1429 14.0399L23.4574 14.0247C24.1294 14.1974 24.5786 14.2722 24.7431 14.2558C24.7974 14.2503 24.8881 14.2062 25.0538 14.0963C25.5244 13.7842 25.57 13.7588 25.8494 13.7588C26.1047 13.7588 26.1574 13.7832 26.6911 14.0715C26.7902 14.1246 26.8274 14.1439 26.881 14.1696C26.9937 14.2237 27.0745 14.2513 27.1187 14.2557C27.247 14.2686 27.505 14.2087 27.866 14.0634C28.3356 13.6367 28.9304 13.6809 29.4421 14.147C29.7834 14.458 30.0574 14.7092 30.2642 14.9009L29.5392 15.6833C29.3349 15.494 29.063 15.2446 28.7237 14.9355C28.5888 14.8126 28.6178 14.8134 28.5579 14.8784L28.3734 15.008C27.8131 15.2445 27.3708 15.353 27.0125 15.3171C26.8201 15.2979 26.6341 15.2343 26.4194 15.1313C26.3475 15.0967 26.2962 15.0701 26.1843 15.01C25.9267 14.8709 25.8288 14.8254 25.8494 14.8254C25.8943 14.8254 25.832 14.8601 25.6434 14.9852C25.3399 15.1865 25.1288 15.2891 24.8495 15.3171C24.5407 15.3481 24.059 15.2736 23.3546 15.0989C22.897 15.2719 22.593 15.4218 22.4607 15.5298Z" fill="white"/>
</g>
<path d="M22.9632 18.3937C22.9632 18.3937 23.9472 19.3362 23.353 19.9747C22.7589 20.6133 22.2141 20.2424 22.2141 20.2424" stroke="#B85F3C"/>
<path d="M29.0498 18.3937C29.0498 18.3937 28.0659 19.3362 28.66 19.9747C29.2542 20.6133 29.799 20.2424 29.799 20.2424" stroke="#B85F3C"/>
<path d="M22.3207 19.1531C22.3207 19.1531 24.0159 20.7731 26.0998 20.7731C28.1838 20.7731 29.8607 19.5355 29.8607 19.5355" stroke="#CB8B73"/>
<rect width="18" height="14" fill="#2B409A"/>
<mask id="mask3_270_67548" style="mask-type:luminance" maskUnits="userSpaceOnUse" x="0" y="0" width="18" height="14">
<rect width="18" height="14" fill="white"/>
</mask>
<g mask="url(#mask3_270_67548)">
<path d="M-2.00427 12.9998L1.95668 14.737L18.0899 1.88875L20.1792 -0.69278L15.9435 -1.2734L9.36317 4.26329L4.06667 7.99372L-2.00427 12.9998Z" fill="#F7FCFF"/>
<path d="M-1.46204 14.2169L0.555885 15.2251L19.4289 -0.932648H16.5955L-1.46204 14.2169Z" fill="#F50100"/>
<path d="M20.0043 12.9998L16.0433 14.737L-0.0898743 1.88875L-2.17919 -0.69278L2.05648 -1.2734L8.63683 4.26329L13.9333 7.99372L20.0043 12.9998Z" fill="#F7FCFF"/>
<path d="M19.8691 13.8733L17.8512 14.8815L9.81489 7.96351L7.43229 7.19059L-2.3802 -0.683947H0.453194L10.2602 7.00368L12.8651 7.9305L19.8691 13.8733Z" fill="#F50100"/>
<mask id="path-20-outside-1_270_67548" maskUnits="userSpaceOnUse" x="-2" y="-2" width="22" height="18" fill="black">
<rect fill="white" x="-2" y="-2" width="22" height="18"/>
<path fill-rule="evenodd" clip-rule="evenodd" d="M9.98451 0H7.98451V6H0V8H7.98451V14H9.98451V8H18V6H9.98451V0Z"/>
</mask>
<path fill-rule="evenodd" clip-rule="evenodd" d="M9.98451 0H7.98451V6H0V8H7.98451V14H9.98451V8H18V6H9.98451V0Z" fill="#F50100"/>
<path d="M7.98451 0V-1.5H6.48451V0H7.98451ZM9.98451 0H11.4845V-1.5H9.98451V0ZM7.98451 6V7.5H9.48451V6H7.98451ZM0 6V4.5H-1.5V6H0ZM0 8H-1.5V9.5H0V8ZM7.98451 8H9.48451V6.5H7.98451V8ZM7.98451 14H6.48451V15.5H7.98451V14ZM9.98451 14V15.5H11.4845V14H9.98451ZM9.98451 8V6.5H8.48451V8H9.98451ZM18 8V9.5H19.5V8H18ZM18 6H19.5V4.5H18V6ZM9.98451 6H8.48451V7.5H9.98451V6ZM7.98451 1.5H9.98451V-1.5H7.98451V1.5ZM9.48451 6V0H6.48451V6H9.48451ZM0 7.5H7.98451V4.5H0V7.5ZM1.5 8V6H-1.5V8H1.5ZM7.98451 6.5H0V9.5H7.98451V6.5ZM9.48451 14V8H6.48451V14H9.48451ZM9.98451 12.5H7.98451V15.5H9.98451V12.5ZM8.48451 8V14H11.4845V8H8.48451ZM18 6.5H9.98451V9.5H18V6.5ZM16.5 6V8H19.5V6H16.5ZM9.98451 7.5H18V4.5H9.98451V7.5ZM8.48451 0V6H11.4845V0H8.48451Z" fill="#F7FCFF" mask="url(#path-20-outside-1_270_67548)"/>
</g>
</g>
</g>
</svg>
