<svg width="32" height="24" viewBox="0 0 32 24" fill="none" xmlns="http://www.w3.org/2000/svg">
<path d="M0 0V7H32V0L0 0Z" fill="#002488"/>
<path d="M0.000732422 7V24H32.0007V7L0.000732422 7Z" fill="#DA121A"/>
<path d="M5.02811 0.789507C4.64592 1.41977 4.60032 1.92392 4.86117 2.79445C4.98676 3.2007 5.12472 3.80737 5.18269 4.13624C5.25997 4.60052 5.25188 4.64466 5.26273 4.74561C5.35934 4.74561 5.57889 4.74598 5.68041 4.74537C5.695 4.58463 5.70681 4.3991 5.74108 4.14397C5.78104 3.8465 5.89956 3.22434 6.02703 2.79222C6.28176 1.92868 6.26471 1.39888 5.86861 0.79918C5.7237 0.576709 5.53048 0.392929 5.44353 0.392929C5.35658 0.392929 5.15989 0.562785 5.02811 0.789507Z" fill="#FCDD09"/>
<path d="M5.86088 4.33318C5.82805 4.49948 5.82005 4.55818 5.80359 4.74561C5.92069 4.74609 5.96672 4.74689 6.08086 4.7462C6.10585 4.62011 6.12385 4.55355 6.17892 4.37458C6.39724 3.6824 7.04028 3.4046 7.0113 4.05267C7.00163 4.23161 6.9262 4.33153 6.84224 4.42746C6.94603 4.40155 7.16645 4.29855 7.34518 4.19699C8.34025 3.59729 7.9484 2.12782 6.90503 2.57276C6.36402 2.8049 6.03862 3.44755 5.86088 4.33318Z" fill="#FCDD09"/>
<path d="M4.69434 4.98963C5.13096 4.99187 5.88557 4.99588 6.24802 4.99365C6.24844 4.88614 6.24979 4.941 6.25068 4.85413C5.98385 4.85156 4.96208 4.8558 4.6964 4.8558C4.69701 4.912 4.6958 4.93922 4.69434 4.98963L4.69434 4.98963Z" fill="#FCDD09"/>
<path d="M4.41956 5.78025C4.41956 5.78025 4.63706 5.80473 4.83989 5.78992C5.04273 5.77511 5.15527 5.74976 5.27515 5.69146C5.2426 5.93346 5.24073 6.16715 5.24073 6.16715C5.27023 6.47858 5.30361 6.55829 5.37107 6.70986C5.46259 6.8363 5.51581 6.83699 5.58309 6.70348C5.6558 6.55399 5.70367 6.40024 5.71886 6.1657C5.71358 5.98991 5.70376 5.90936 5.66218 5.69448C5.80253 5.75528 5.89117 5.77104 6.10055 5.78992C6.31481 5.80923 6.51175 5.79976 6.51175 5.79976C6.51175 5.79976 6.22233 5.65434 6.09494 5.47599C5.9692 5.29994 5.99601 5.32987 5.90458 5.10307C5.79348 5.0978 5.23019 5.10299 5.05146 5.10299C4.95357 5.30975 4.94373 5.35293 4.82282 5.48341C4.66542 5.65326 4.41956 5.78025 4.41956 5.78025Z" fill="#FCDD09"/>
<path d="M4.02743 2.57244C4.56844 2.80458 4.89383 3.44723 5.07158 4.33286C5.1044 4.49916 5.11241 4.55786 5.12887 4.74529C5.01177 4.74577 4.96574 4.74657 4.85159 4.74588C4.8266 4.61979 4.80861 4.55323 4.75354 4.37426C4.53521 3.68208 3.89218 3.40428 3.92116 4.05235C3.93082 4.23129 4.00625 4.33121 4.09021 4.42714C3.98643 4.40123 3.766 4.29823 3.58728 4.19667C2.59221 3.59697 2.98405 2.1275 4.02743 2.57244V2.57244Z" fill="#FCDD09"/>
<path d="M15.0281 0.789507C14.6459 1.41977 14.6003 1.92392 14.8612 2.79445C14.9868 3.2007 15.1247 3.80737 15.1827 4.13624C15.26 4.60052 15.2519 4.64466 15.2627 4.74561C15.3593 4.74561 15.5789 4.74598 15.6804 4.74537C15.695 4.58463 15.7068 4.3991 15.7411 4.14397C15.781 3.8465 15.8996 3.22434 16.027 2.79222C16.2818 1.92868 16.2647 1.39888 15.8686 0.79918C15.7237 0.576709 15.5305 0.392929 15.4435 0.392929C15.3566 0.392929 15.1599 0.562785 15.0281 0.789507Z" fill="#FCDD09"/>
<path d="M16.905 2.57276C16.364 2.8049 16.0386 3.44755 15.8609 4.33318C15.8281 4.49948 15.82 4.55818 15.8036 4.74561C15.9207 4.74609 15.9667 4.74689 16.0809 4.7462C16.1059 4.62011 16.1238 4.55355 16.1789 4.37458C16.3972 3.6824 17.0403 3.4046 17.0113 4.05267C17.0016 4.23161 16.9262 4.33153 16.8422 4.42746C16.946 4.40155 17.1665 4.29855 17.3452 4.19699C18.3403 3.59729 17.9484 2.12782 16.905 2.57276V2.57276Z" fill="#FCDD09"/>
<path d="M14.6943 4.98963C15.131 4.99187 15.8856 4.99588 16.248 4.99365C16.2484 4.88614 16.2498 4.941 16.2507 4.85413C15.9839 4.85156 14.9621 4.8558 14.6964 4.8558C14.697 4.912 14.6958 4.93922 14.6943 4.98963L14.6943 4.98963Z" fill="#FCDD09"/>
<path d="M14.8228 5.48341C14.6654 5.65326 14.4196 5.78025 14.4196 5.78025C14.4196 5.78025 14.6371 5.80473 14.8399 5.78992C15.0427 5.77511 15.1553 5.74976 15.2752 5.69146C15.2426 5.93346 15.2407 6.16715 15.2407 6.16715C15.2702 6.47858 15.3036 6.55829 15.3711 6.70986C15.4626 6.8363 15.5158 6.83699 15.5831 6.70348C15.6558 6.55399 15.7037 6.40024 15.7189 6.1657C15.7136 5.98991 15.7038 5.90936 15.6622 5.69448C15.8025 5.75528 15.8912 5.77104 16.1006 5.78992C16.3148 5.80923 16.5117 5.79976 16.5117 5.79976C16.5117 5.79976 16.2223 5.65434 16.0949 5.47599C15.9692 5.29994 15.996 5.32987 15.9046 5.10307C15.7935 5.0978 15.2302 5.10299 15.0515 5.10299C14.9536 5.30975 14.9437 5.35293 14.8228 5.48341V5.48341Z" fill="#FCDD09"/>
<path d="M14.0274 2.57244C14.5684 2.80458 14.8938 3.44723 15.0716 4.33286C15.1044 4.49916 15.1124 4.55786 15.1289 4.74529C15.0118 4.74577 14.9657 4.74657 14.8516 4.74588C14.8266 4.61979 14.8086 4.55323 14.7535 4.37426C14.5352 3.68208 13.8922 3.40428 13.9212 4.05235C13.9308 4.23129 14.0063 4.33121 14.0902 4.42714C13.9864 4.40123 13.766 4.29823 13.5873 4.19667C12.5922 3.59697 12.9841 2.1275 14.0274 2.57244V2.57244Z" fill="#FCDD09"/>
<path d="M25.0281 0.789507C24.6459 1.41977 24.6003 1.92392 24.8612 2.79445C24.9868 3.2007 25.1247 3.80737 25.1827 4.13624C25.26 4.60052 25.2519 4.64466 25.2627 4.74561C25.3593 4.74561 25.5789 4.74598 25.6804 4.74537C25.695 4.58463 25.7068 4.3991 25.7411 4.14397C25.781 3.8465 25.8996 3.22434 26.027 2.79222C26.2818 1.92868 26.2647 1.39888 25.8686 0.79918C25.7237 0.576709 25.5305 0.392929 25.4435 0.392929C25.3566 0.392929 25.1599 0.562785 25.0281 0.789507Z" fill="#FCDD09"/>
<path d="M26.905 2.57276C26.364 2.8049 26.0386 3.44755 25.8609 4.33318C25.8281 4.49948 25.82 4.55818 25.8036 4.74561C25.9207 4.74609 25.9667 4.74689 26.0809 4.7462C26.1059 4.62011 26.1238 4.55355 26.1789 4.37458C26.3972 3.6824 27.0403 3.4046 27.0113 4.05267C27.0016 4.23161 26.9262 4.33153 26.8422 4.42746C26.946 4.40155 27.1665 4.29855 27.3452 4.19699C28.3403 3.59729 27.9484 2.12782 26.905 2.57276V2.57276Z" fill="#FCDD09"/>
<path d="M24.6943 4.98963C25.131 4.99187 25.8856 4.99588 26.248 4.99365C26.2484 4.88614 26.2498 4.941 26.2507 4.85413C25.9839 4.85156 24.9621 4.8558 24.6964 4.8558C24.697 4.912 24.6958 4.93922 24.6943 4.98963L24.6943 4.98963Z" fill="#FCDD09"/>
<path d="M24.8228 5.48341C24.6654 5.65326 24.4196 5.78025 24.4196 5.78025C24.4196 5.78025 24.6371 5.80473 24.8399 5.78992C25.0427 5.77511 25.1553 5.74976 25.2752 5.69146C25.2426 5.93346 25.2407 6.16715 25.2407 6.16715C25.2702 6.47858 25.3036 6.55829 25.3711 6.70986C25.4626 6.8363 25.5158 6.83699 25.5831 6.70348C25.6558 6.55399 25.7037 6.40024 25.7189 6.1657C25.7136 5.98991 25.7038 5.90936 25.6622 5.69448C25.8025 5.75528 25.8912 5.77104 26.1006 5.78992C26.3148 5.80923 26.5117 5.79976 26.5117 5.79976C26.5117 5.79976 26.2223 5.65434 26.0949 5.47599C25.9692 5.29994 25.996 5.32987 25.9046 5.10307C25.7935 5.0978 25.2302 5.10299 25.0515 5.10299C24.9536 5.30975 24.9437 5.35293 24.8228 5.48341V5.48341Z" fill="#FCDD09"/>
<path d="M24.0274 2.57244C24.5684 2.80458 24.8938 3.44723 25.0716 4.33286C25.1044 4.49916 25.1124 4.55786 25.1289 4.74529C25.0118 4.74577 24.9657 4.74657 24.8516 4.74588C24.8266 4.61979 24.8086 4.55323 24.7535 4.37426C24.5352 3.68208 23.8922 3.40428 23.9212 4.05235C23.9308 4.23129 24.0063 4.33121 24.0902 4.42714C23.9864 4.40123 23.766 4.29823 23.5873 4.19667C22.5922 3.59697 22.9841 2.1275 24.0274 2.57244V2.57244Z" fill="#FCDD09"/>
<path d="M11.2987 13.1284C11.5085 13.2263 11.7763 13.3035 11.9114 13.308C12.071 13.3134 12.0286 13.2741 11.7307 13.1581C11.4975 13.067 11.2186 12.9138 11.0948 12.8187C10.8728 12.6372 10.8728 12.6372 10.8961 12.7969C10.9094 12.8882 11.0767 13.0301 11.2987 13.1284Z" fill="#008000"/>
<path d="M9.99394 11.2412C10.1292 11.7829 10.6895 12.7792 10.8827 12.8179C11.0566 12.8469 11.0566 12.8372 10.9117 12.6728C10.6702 12.3923 10.1485 11.367 10.1485 11.1735C10.1485 11.0671 10.1002 10.9897 10.0422 10.9897C9.97462 10.9897 9.95529 11.0865 9.99394 11.2412Z" fill="#008000"/>
<path d="M4.18706 10.562C4.1837 10.5811 4.36505 10.7211 4.59228 10.8791C4.81952 11.0371 5.08426 11.2606 5.17214 11.3744C5.32271 11.5777 6.17567 12.0819 6.25569 12.0175C6.33403 11.9625 5.23533 11.0712 4.7708 10.8124C4.21783 10.4987 4.1988 10.4954 4.18706 10.562Z" fill="#008000"/>
<path d="M4.49829 11.3062C4.49829 11.3255 4.70117 11.4319 4.95235 11.548C5.20354 11.6641 5.50302 11.8382 5.60929 11.9349C5.79285 12.109 6.7203 12.4572 6.78792 12.3799C6.85555 12.3121 5.61895 11.6254 5.11659 11.4513C4.51761 11.2385 4.49829 11.2385 4.49829 11.3062Z" fill="#008000"/>
<path d="M9.28186 11.3836C9.28186 11.49 9.65864 12.2251 9.88084 12.5346C10.0064 12.7087 10.1513 12.8054 10.3156 12.8054C10.5571 12.8054 10.5571 12.8054 10.19 12.3895C9.97744 12.167 9.69728 11.8285 9.55237 11.6447C9.40745 11.4609 9.28186 11.3449 9.28186 11.3836H9.28186Z" fill="#008000"/>
<path d="M7.72648 14.3613C7.08887 14.6128 6.95361 14.6999 6.95361 14.8353C6.95361 14.8933 7.02124 14.8836 7.12751 14.7966C7.21446 14.7095 7.53327 14.5935 7.82309 14.5257C8.11292 14.458 8.46071 14.342 8.59597 14.2743L8.83749 14.1485H8.54766C8.39309 14.1582 8.01631 14.2549 7.72648 14.3613Z" fill="#008000"/>
<path d="M6.46225 12.8455C6.29801 12.9712 6.30767 12.9809 6.66513 12.9228C6.87766 12.8938 7.18681 12.8358 7.34139 12.7971C7.59257 12.7294 7.57325 12.7197 7.13851 12.7101C6.84868 12.7004 6.57818 12.7584 6.46225 12.8455Z" fill="#008000"/>
<path d="M4.06216 11.8285C5.65621 12.1187 8.85397 13.1923 8.66075 13.3761C8.61244 13.4245 7.71398 13.202 7.58839 13.1149C7.54008 13.0666 7.0667 13.0859 6.54501 13.1536C5.56926 13.26 5.40503 13.3471 5.42435 13.7437C5.43401 13.9371 5.43401 13.9371 5.48231 13.7437C5.56926 13.3858 5.71418 13.3084 6.26485 13.3084C6.86382 13.3084 8.50617 13.5502 9.23074 13.7437C10.1968 14.0145 10.2258 14.0145 9.907 13.8404C9.49158 13.6082 8.86363 13.1827 8.7477 13.0569C8.53516 12.8151 4.68046 11.7511 4.12013 11.7704C3.85928 11.7898 3.84962 11.7898 4.06216 11.8285Z" fill="#008000"/>
<path d="M4.79507 12.3439C4.67913 12.4309 4.55354 12.6341 4.52456 12.7985C4.4666 13.079 4.4666 13.079 4.62117 12.8952C5.02693 12.3826 5.05591 12.3632 5.55828 12.3536C5.96403 12.3439 6.022 12.3245 5.82878 12.2665C5.42302 12.1408 5.01727 12.1698 4.79507 12.3439Z" fill="#008000"/>
<path d="M9.71931 12.9408C9.7966 13.0762 10.5502 13.4535 10.6081 13.3954C10.6371 13.3664 10.5502 13.289 10.4342 13.2213C10.3086 13.1536 10.1444 13.0472 10.0768 12.9698C9.92219 12.8247 9.63237 12.7957 9.71931 12.9408Z" fill="#008000"/>
<path d="M9.77742 13.8598C9.85471 13.9952 10.6083 14.3724 10.6662 14.3144C10.6952 14.2854 10.6083 14.208 10.4923 14.1403C10.3667 14.0726 10.2025 13.9662 10.1349 13.8888C9.9803 13.7437 9.69047 13.7147 9.77742 13.8598Z" fill="#008000"/>
<path d="M8.69744 12.7081C8.71134 12.6947 8.92871 12.7669 9.18659 12.8672C9.44447 12.9674 9.7776 13.0622 9.92092 13.0715C10.1735 13.0828 11.068 13.5088 11.0593 13.6113C11.0577 13.707 9.70525 13.2935 9.23118 13.0526C8.66221 12.7691 8.64879 12.7551 8.69744 12.7081Z" fill="#008000"/>
<path d="M10.2976 13.415C10.1174 13.4847 9.93614 13.6109 9.87982 13.7011C9.81327 13.8077 9.86959 13.8088 10.102 13.6919C10.2843 13.6006 10.5475 13.5257 10.6919 13.5134C10.9622 13.5001 10.9622 13.5001 10.7902 13.3924C10.6919 13.3309 10.483 13.3371 10.2976 13.415Z" fill="#008000"/>
<path d="M5.7763 10.1551C6.07578 10.7258 7.29306 12.0413 7.96932 12.5443C8.15288 12.6797 8.48135 12.8151 8.68423 12.8441L9.061 12.9022L8.78083 12.5926C8.32677 12.0993 7.63119 11.1514 7.40899 10.7355C7.16746 10.2809 7.13848 10.3969 7.34136 10.9773C7.41865 11.2094 7.7278 11.6737 8.02728 12.0026C8.32677 12.3411 8.51999 12.6217 8.47169 12.6217C8.34609 12.6217 7.53458 11.6641 6.95493 10.8322C6.32697 9.92299 6.29798 9.89397 6.47188 10.3969C6.55883 10.6388 6.75205 10.9966 6.91628 11.1901C7.07086 11.3932 7.16746 11.5577 7.11916 11.5577C7.02255 11.5577 6.59747 11.074 6.06612 10.3776C5.92121 10.1745 5.71833 9.91332 5.63138 9.79724C5.53477 9.6715 5.6024 9.83593 5.7763 10.1551Z" fill="#008000"/>
<path d="M6.34209 13.8984C5.92667 13.9952 5.70447 14.1402 5.70447 14.3143C5.70447 14.3821 5.74311 14.3724 5.79142 14.295C5.8687 14.1693 6.6609 13.9371 6.73818 14.0145C6.75751 14.0338 6.72852 14.1789 6.67056 14.324C6.61259 14.4691 6.59327 14.6142 6.62225 14.6432C6.65124 14.6819 6.69954 14.6045 6.72852 14.4981C6.84445 14.0822 7.20191 13.9565 8.06173 14.0338C8.49647 14.0725 8.97951 14.1209 9.13408 14.1306C9.29832 14.1402 9.52052 14.1983 9.63645 14.266C9.88763 14.4014 10.8634 14.4111 10.7764 14.2757C10.7475 14.2273 10.5639 14.1596 10.361 14.1306C10.1678 14.1015 9.76204 14.0048 9.46256 13.9274C8.86358 13.7727 6.95072 13.7533 6.34209 13.8984Z" fill="#008000"/>
<path d="M9.86998 15.0149C9.14186 14.8849 8.79558 15.0011 8.50106 15.4555L8.24976 15.8459L8.57295 15.5391C9.01202 15.1122 9.3311 15.071 10.1203 15.3007C10.4895 15.41 10.8026 15.4814 10.8134 15.4654C10.8728 15.3772 10.2501 15.0733 9.86998 15.0149Z" fill="#008000"/>
<path d="M10.0684 15.218C9.39216 15.5179 9.16996 15.8081 9.17962 16.3497L9.18928 16.814L9.28589 16.3788C9.41148 15.7791 9.653 15.5663 10.4355 15.3148C10.8027 15.1987 11.1021 15.0826 11.1021 15.0633C11.1021 14.9569 10.4162 15.0536 10.0684 15.218Z" fill="#008000"/>
<path d="M9.94018 16.0485C9.82425 16.2032 9.7373 16.4064 9.7373 16.5128C9.7373 16.6385 9.78561 16.6095 9.92086 16.387C10.0271 16.2129 10.2107 16.0098 10.3266 15.9227C10.5488 15.768 10.5488 15.768 10.3459 15.768C10.23 15.768 10.0561 15.884 9.94018 16.0485Z" fill="#008000"/>
<path d="M20.3852 17.6248C20.6989 17.7609 22.3265 18.1719 23.4781 18.5095C24.6297 18.8472 25.9761 19.2359 26.2742 19.2778C26.7002 18.3481 25.9249 20.087 26.3673 19.0331C25.7922 18.8865 23.5252 18.3525 22.6154 18.0907C21.8311 17.8709 20.7185 17.5279 20.4335 17.4651C20.1486 17.4023 20.1446 17.5201 20.3852 17.6248Z" fill="#008000"/>
<path d="M20.5842 17.3834C20.9025 17.5085 22.5434 17.8624 23.7061 18.1596C24.8687 18.4568 26.2279 18.7982 26.5272 18.8297C26.9206 17.8857 26.2064 19.6506 26.6118 18.5819C26.0319 18.4555 23.7477 18.001 22.8293 17.7712C22.0378 17.5789 20.9139 17.275 20.627 17.2221C20.34 17.1693 20.3402 17.2872 20.5842 17.3834Z" fill="#008000"/>
<path d="M20.1335 17.8001C20.4397 17.9525 22.0436 18.4482 23.176 18.8457C24.3083 19.2433 25.6326 19.702 25.9281 19.7594C26.4021 18.8534 25.537 20.5492 26.0339 19.52C25.4672 19.3435 23.2312 18.6914 22.3363 18.3823C21.5646 18.1216 20.4714 17.7208 20.1902 17.6432C19.9089 17.5655 19.8988 17.683 20.1335 17.8001Z" fill="#008000"/>
<path d="M19.9382 17.9982C20.2359 18.1664 21.8117 18.7455 22.9218 19.2018C24.0318 19.6581 25.3303 20.1856 25.6223 20.2585C26.1431 19.3785 25.1905 21.0267 25.7405 20.0249C25.1839 19.8189 22.985 19.0505 22.1075 18.695C21.3505 18.3943 20.2798 17.9367 20.0029 17.8444C19.7261 17.7521 19.7099 17.8689 19.9382 17.9982Z" fill="#008000"/>
<path d="M19.7542 18.2477C20.046 18.4262 21.6006 19.06 22.6941 19.5548C23.7875 20.0497 25.0668 20.6222 25.3562 20.7052C25.9072 19.844 24.8978 21.4579 25.4824 20.4759C24.9333 20.2506 22.7625 19.4059 21.898 19.0199C21.1519 18.6929 20.0978 18.1982 19.8243 18.0963C19.5508 17.9944 19.5306 18.1105 19.7542 18.2477Z" fill="#008000"/>
<path d="M16.4953 20.755C16.9439 21.0679 17.1905 21.5027 17.1661 21.9515L17.1495 22.3221L17.2968 21.9574C17.4579 21.5758 17.4357 20.998 17.2454 20.5701L17.1344 20.3205L17.4869 20.4742C17.9906 20.6869 18.3223 21.0608 18.3916 21.505L18.4523 21.8709L18.5206 21.4835C18.5989 21.0767 18.4573 20.5163 18.1822 20.1373L18.0218 19.9162L18.3986 19.9931C18.9354 20.0963 19.3374 20.3931 19.4975 20.8132L19.6329 21.1585L19.6192 20.7653C19.6113 20.351 19.3564 19.8323 19.0087 19.5189L18.8059 19.336L19.1904 19.3329C19.7369 19.3221 20.1918 19.5286 20.4356 19.9063L20.6396 20.2158L20.5447 19.8341C20.451 19.4307 20.0939 18.9764 19.6887 18.7421L19.4523 18.6055L19.8278 18.5224C20.3601 18.3979 20.848 18.5054 21.1648 18.824L21.4287 19.0843L21.2565 18.7307C21.0811 18.3556 20.6375 17.9854 20.1925 17.8406L19.9329 17.7563L20.2829 17.5969C20.7777 17.3644 21.2772 17.3679 21.6533 17.6135L21.9656 17.8132L21.7237 17.5031C21.4742 17.1727 20.9634 16.9031 20.4981 16.8541L20.2267 16.8256L20.536 16.5968C20.9717 16.2664 21.461 16.1657 21.8798 16.3278L22.2268 16.4581L21.9258 16.2052C21.6131 15.9339 21.0575 15.7765 20.5922 15.8255L20.3208 15.854L20.5757 15.5658C20.9334 15.1519 21.3911 14.9517 21.8345 15.023L22.2008 15.0782L21.8539 14.8935C21.4917 14.6933 20.9156 14.6549 20.4706 14.7997L20.211 14.884L20.4005 14.5491C20.6643 14.0698 21.0705 13.7787 21.5189 13.7561L21.8888 13.7339L21.5111 13.6255C21.1152 13.505 20.5437 13.5875 20.1385 13.8216L19.9021 13.9582L20.018 13.5911C20.1766 13.0674 20.5134 12.6982 20.9474 12.5827L21.3046 12.4839L20.9126 12.4566C20.5003 12.4211 19.9584 12.6206 19.6107 12.934L19.4079 13.1169L19.445 12.7338C19.4913 12.1884 19.7441 11.7571 20.1447 11.5537L20.4735 11.3829L20.0844 11.4376C19.6738 11.4887 19.1852 11.7968 18.9102 12.1757L18.7498 12.3968L18.7065 12.0143C18.6386 11.4713 18.7962 10.9967 19.1458 10.7146L19.4319 10.4789L19.0627 10.6134C18.6717 10.7489 18.2578 11.1519 18.0675 11.5799L17.9565 11.8296L17.8347 11.4644C17.6554 10.9474 17.7111 10.4503 17.9945 10.1016L18.2255 9.81157L17.8922 10.0199C17.5379 10.2338 17.2167 10.7142 17.1194 11.1724L17.0627 11.4397L16.8677 11.108C16.585 10.6394 16.5363 10.1418 16.741 9.74161L16.9067 9.40985L16.624 9.68299C16.3219 9.96608 16.1074 10.5029 16.1074 10.9713V11.2445L15.8478 10.9606C15.4741 10.5613 15.3231 10.0845 15.4402 9.65048L15.5333 9.2914L15.3135 9.61761C15.0767 9.95723 14.9785 10.5269 15.0757 10.9853L15.1324 11.2525L14.8196 11.0288C14.371 10.7159 14.1243 10.2811 14.1488 9.83213L14.1653 9.46152L14.018 9.82633C13.857 10.2079 13.8792 10.7856 14.0694 11.2135L14.1804 11.4632L13.8279 11.3095C13.3242 11.0969 12.9925 10.7229 12.9232 10.2788L12.8625 9.91283L12.7943 10.3002C12.716 10.7069 12.8575 11.2675 13.1326 11.6465L13.293 11.8674L12.9163 11.7905C12.3795 11.6873 11.9774 11.3906 11.8174 10.9705L11.682 10.6252L11.6957 11.0184C11.7035 11.4326 11.9585 11.9513 12.3062 12.2647L12.509 12.4476L12.1245 12.4507C11.578 12.4616 11.1231 12.255 10.8793 11.8775L10.6752 11.5678L10.7702 11.9495C10.8639 12.353 11.221 12.8074 11.6262 13.0416L11.8625 13.1783L11.4871 13.2613C10.9547 13.3856 10.4669 13.2784 10.1501 12.9598L9.88609 12.6994L10.0583 13.053C10.2338 13.4282 10.6774 13.7982 11.1224 13.943L11.382 14.0274L11.032 14.1868C10.5371 14.4194 10.0376 14.4158 9.66153 14.1702L9.34925 13.9705L9.59111 14.2805C9.84065 14.6109 10.3514 14.8805 10.8167 14.9295L11.0881 14.9581L10.7789 15.1869C10.3431 15.5173 9.8538 15.6179 9.43496 15.4559L9.08801 15.3256L9.38897 15.5785C9.70168 15.8498 10.2573 16.0072 10.7226 15.9582L10.994 15.9297L10.7391 16.2178C10.3815 16.6318 9.92368 16.8319 9.48035 16.7607L9.11397 16.7054L9.46092 16.8902C9.82316 17.0905 10.3993 17.1288 10.8443 16.9841L11.1039 16.8996L10.9143 17.2346C10.6505 17.7139 10.2443 18.0051 9.79587 18.0276L9.42601 18.0497L9.80373 18.1582C10.1996 18.2787 10.7711 18.1962 11.1763 17.9621L11.4127 17.8254L11.2969 18.1924C11.1383 18.7163 10.8015 19.0856 10.3675 19.201L10.0103 19.2998L10.4023 19.3272C10.8145 19.3626 11.3564 19.163 11.7041 18.8496L11.9069 18.6667L11.8698 19.05C11.8235 19.5952 11.5708 20.0266 11.1702 20.2298L10.8414 20.4008L11.2305 20.3462C11.6411 20.295 12.1297 19.9868 12.4047 19.6079L12.5651 19.3869L12.6084 19.7694C12.6763 20.3124 12.5187 20.7869 12.1691 21.0692L11.8829 21.3048L12.2521 21.1703C12.6431 21.0349 13.0571 20.6317 13.2474 20.2038L13.3584 19.9542L13.4801 20.3192C13.6594 20.8364 13.6037 21.3333 13.3203 21.6821L13.0893 21.9722L13.4226 21.7637C13.7769 21.5499 14.0981 21.0694 14.1954 20.6112L14.2521 20.344L14.4471 20.6758C14.7298 21.1442 14.7785 21.642 14.5738 22.0421L14.4081 22.3739L14.6908 22.1006C14.993 21.8177 15.2074 21.2809 15.2074 20.8124V20.5392L15.467 20.8232C15.8407 21.2225 15.9917 21.6992 15.8747 22.1332L15.7815 22.4923L16.0012 22.1661C16.238 21.8264 16.3363 21.2568 16.2391 20.7985L16.1823 20.5313L16.4953 20.755Z" fill="#FCDD09"/>
</svg>
