<svg width="32" height="24" viewBox="0 0 32 24" fill="none" xmlns="http://www.w3.org/2000/svg">
<rect width="32" height="24" fill="#21428E"/>
<path fill-rule="evenodd" clip-rule="evenodd" d="M14 0H18V10H32V14H18V24H14V14H0V10H14V0Z" fill="#F7FCFF"/>
<path fill-rule="evenodd" clip-rule="evenodd" d="M4.82916 1.34879C4.82916 1.38761 4.85603 1.41196 4.87685 1.43083C4.91186 1.46257 4.92977 1.4788 4.77395 1.52234C4.53931 1.59176 3.90438 1.68433 3.4627 1.67276C3.37824 1.67276 3.22972 1.6477 3.09791 1.62546L3.09791 1.62545L3.09791 1.62545C2.99276 1.60771 2.89825 1.59176 2.85538 1.59176C2.79759 1.59782 2.92879 1.65457 3.03536 1.70066C3.13245 1.74266 3.2091 1.77581 3.10382 1.75375C2.80016 1.68433 2.62073 1.66119 2.85538 1.78846C3.03481 1.88102 3.43509 1.88102 4.001 1.82317C4.1169 1.81103 4.33165 1.77658 4.53949 1.74323L4.5395 1.74323C4.72769 1.71304 4.91022 1.68375 5.0086 1.67276C5.08784 1.66612 5.12159 1.6976 5.15163 1.72563C5.17392 1.74643 5.19417 1.76532 5.22944 1.76532C5.97479 1.80003 7.29985 1.77689 7.87957 1.70747C8.36266 1.64962 8.5421 1.67276 8.68012 1.8116C8.95618 2.07772 8.66632 2.30913 7.87957 2.44797C6.91338 2.62153 6.5131 2.77194 6.14042 3.10749C5.24325 3.91741 6.29225 4.83147 8.25224 4.95875C9.39787 5.03974 10.1432 5.22487 9.96378 5.37528C9.89476 5.43313 9.13561 5.5257 8.26604 5.58355C6.37507 5.71082 5.5331 5.93066 4.81536 6.50918C4.41508 6.83315 4.27706 7.02985 4.27706 7.29597C4.27706 7.43978 4.27706 7.52773 4.23419 7.58152C4.16669 7.66622 3.99292 7.66622 3.54552 7.66622H3.54551C3.15904 7.66622 2.62073 7.61994 2.37228 7.55051C1.9858 7.46952 1.93059 7.46952 2.06862 7.60837C2.34468 7.88606 3.13143 8.12903 3.78016 8.12903C4.27706 8.12903 4.55311 8.21003 4.9948 8.47615C5.87817 9.01995 6.88577 9.22822 8.5559 9.21665C10.7505 9.20508 12.0066 8.71912 12.0066 7.89763C12.0066 7.2844 11.1784 6.92571 9.45308 6.79844C8.5835 6.72902 6.87197 6.84472 6.12662 7.02985C5.98859 7.06456 6.14042 6.98357 6.47169 6.84472C6.87197 6.68274 7.5345 6.56703 8.43167 6.49761C10.4193 6.35876 11.3164 5.98851 11.3164 5.29429C11.3164 4.62321 10.4331 4.24138 8.5421 4.09097C6.67873 3.95212 6.5407 3.67443 8.11421 3.26947C9.23223 2.99178 9.79814 2.57525 9.79814 2.0083C9.79814 1.14052 9.23223 0.85126 7.34126 0.770267C6.19563 0.723985 5.91958 0.747126 5.42268 0.943823C5.09142 1.0711 4.82916 1.25622 4.82916 1.34879ZM6.46772 1.25803C6.40324 1.36387 6.23127 1.46971 6.1238 1.46971C5.99483 1.46971 5.97333 1.36387 6.03782 1.25803C6.1023 1.13102 6.27426 1.04635 6.38174 1.04635C6.51071 1.04635 6.53221 1.13102 6.46772 1.25803ZM7.83334 8.35737C8.74639 8.42404 10.2454 8.22404 10.4771 7.99739C10.5589 7.91739 9.99606 7.71077 9.73713 7.61745C8.81007 7.37481 6.9748 7.46407 6.06176 7.81073C5.73469 7.94406 6.8249 8.26404 7.83334 8.35737Z" fill="white"/>
<path fill-rule="evenodd" clip-rule="evenodd" d="M4.82916 15.3488C4.82916 15.3876 4.85603 15.412 4.87685 15.4308C4.91186 15.4626 4.92977 15.4788 4.77395 15.5223C4.53931 15.5918 3.90438 15.6843 3.4627 15.6728C3.37824 15.6728 3.22972 15.6477 3.09791 15.6255L3.09791 15.6255L3.09791 15.6255C2.99276 15.6077 2.89825 15.5918 2.85538 15.5918C2.79759 15.5978 2.92879 15.6546 3.03536 15.7007C3.13245 15.7427 3.2091 15.7758 3.10382 15.7537C2.80016 15.6843 2.62073 15.6612 2.85538 15.7885C3.03481 15.881 3.43509 15.881 4.001 15.8232C4.1169 15.811 4.33165 15.7766 4.53949 15.7432L4.5395 15.7432C4.72769 15.713 4.91022 15.6838 5.0086 15.6728C5.08784 15.6661 5.12159 15.6976 5.15163 15.7256C5.17392 15.7464 5.19417 15.7653 5.22944 15.7653C5.97479 15.8 7.29985 15.7769 7.87957 15.7075C8.36266 15.6496 8.5421 15.6728 8.68012 15.8116C8.95618 16.0777 8.66632 16.3091 7.87957 16.448C6.91338 16.6215 6.5131 16.7719 6.14042 17.1075C5.24325 17.9174 6.29225 18.8315 8.25224 18.9587C9.39787 19.0397 10.1432 19.2249 9.96378 19.3753C9.89476 19.4331 9.13561 19.5257 8.26604 19.5835C6.37507 19.7108 5.5331 19.9307 4.81536 20.5092C4.41508 20.8332 4.27706 21.0298 4.27706 21.296C4.27706 21.4398 4.27706 21.5277 4.23419 21.5815C4.16669 21.6662 3.99292 21.6662 3.54552 21.6662H3.54551C3.15904 21.6662 2.62073 21.6199 2.37228 21.5505C1.9858 21.4695 1.93059 21.4695 2.06862 21.6084C2.34468 21.8861 3.13143 22.129 3.78016 22.129C4.27706 22.129 4.55311 22.21 4.9948 22.4761C5.87817 23.02 6.88577 23.2282 8.5559 23.2167C10.7505 23.2051 12.0066 22.7191 12.0066 21.8976C12.0066 21.2844 11.1784 20.9257 9.45308 20.7984C8.5835 20.729 6.87197 20.8447 6.12662 21.0298C5.98859 21.0646 6.14042 20.9836 6.47169 20.8447C6.87197 20.6827 7.5345 20.567 8.43167 20.4976C10.4193 20.3588 11.3164 19.9885 11.3164 19.2943C11.3164 18.6232 10.4331 18.2414 8.5421 18.091C6.67873 17.9521 6.5407 17.6744 8.11421 17.2695C9.23223 16.9918 9.79814 16.5752 9.79814 16.0083C9.79814 15.1405 9.23223 14.8513 7.34126 14.7703C6.19563 14.724 5.91958 14.7471 5.42268 14.9438C5.09142 15.0711 4.82916 15.2562 4.82916 15.3488ZM6.46772 15.258C6.40324 15.3639 6.23127 15.4697 6.1238 15.4697C5.99483 15.4697 5.97333 15.3639 6.03782 15.258C6.1023 15.131 6.27426 15.0464 6.38174 15.0464C6.51071 15.0464 6.53221 15.131 6.46772 15.258ZM7.83334 22.3574C8.74639 22.424 10.2454 22.224 10.4771 21.9974C10.5589 21.9174 9.99606 21.7108 9.73713 21.6175C8.81007 21.3748 6.9748 21.4641 6.06176 21.8107C5.73469 21.9441 6.8249 22.264 7.83334 22.3574Z" fill="white"/>
<path fill-rule="evenodd" clip-rule="evenodd" d="M22.8226 1.34879C22.8226 1.38761 22.8494 1.41196 22.8703 1.43083C22.9053 1.46257 22.9232 1.4788 22.7674 1.52234C22.5327 1.59176 21.8978 1.68433 21.4561 1.67276C21.3716 1.67276 21.2231 1.6477 21.0913 1.62546L21.0913 1.62545L21.0913 1.62545C20.9862 1.60771 20.8917 1.59176 20.8488 1.59176C20.791 1.59782 20.9222 1.65457 21.0288 1.70066C21.1259 1.74266 21.2025 1.77581 21.0972 1.75375C20.7936 1.68433 20.6141 1.66119 20.8488 1.78846C21.0282 1.88102 21.4285 1.88102 21.9944 1.82317C22.1103 1.81103 22.3251 1.77658 22.5329 1.74323L22.5329 1.74323C22.7211 1.71304 22.9036 1.68375 23.002 1.67276C23.0812 1.66612 23.115 1.6976 23.145 1.72563C23.1673 1.74643 23.1876 1.76532 23.2229 1.76532C23.9682 1.80003 25.2933 1.77689 25.873 1.70747C26.3561 1.64962 26.5355 1.67276 26.6735 1.8116C26.9496 2.07772 26.6597 2.30913 25.873 2.44797C24.9068 2.62153 24.5065 2.77194 24.1338 3.10749C23.2367 3.91741 24.2857 4.83147 26.2456 4.95875C27.3913 5.03974 28.1366 5.22487 27.9572 5.37528C27.8882 5.43313 27.129 5.5257 26.2595 5.58355C24.3685 5.71082 23.5265 5.93066 22.8088 6.50918C22.4085 6.83315 22.2705 7.02985 22.2705 7.29597C22.2705 7.43978 22.2705 7.52773 22.2276 7.58152C22.1601 7.66622 21.9863 7.66622 21.5389 7.66622H21.5389C21.1524 7.66622 20.6141 7.61994 20.3657 7.55051C19.9792 7.46952 19.924 7.46952 20.062 7.60837C20.3381 7.88606 21.1248 8.12903 21.7736 8.12903C22.2705 8.12903 22.5465 8.21003 22.9882 8.47615C23.8716 9.01995 24.8792 9.22822 26.5493 9.21665C28.7439 9.20508 30 8.71912 30 7.89763C30 7.2844 29.1718 6.92571 27.4465 6.79844C26.5769 6.72902 24.8654 6.84472 24.12 7.02985C23.982 7.06456 24.1338 6.98357 24.4651 6.84472C24.8654 6.68274 25.5279 6.56703 26.4251 6.49761C28.4127 6.35876 29.3099 5.98851 29.3099 5.29429C29.3099 4.62321 28.4265 4.24138 26.5355 4.09097C24.6721 3.95212 24.5341 3.67443 26.1076 3.26947C27.2256 2.99178 27.7916 2.57525 27.7916 2.0083C27.7916 1.14052 27.2256 0.85126 25.3347 0.770267C24.189 0.723985 23.913 0.747126 23.4161 0.943823C23.0848 1.0711 22.8226 1.25622 22.8226 1.34879ZM24.4611 1.25803C24.3967 1.36387 24.2247 1.46971 24.1172 1.46971C23.9882 1.46971 23.9668 1.36387 24.0312 1.25803C24.0957 1.13102 24.2677 1.04635 24.3752 1.04635C24.5041 1.04635 24.5256 1.13102 24.4611 1.25803ZM25.8268 8.35737C26.7398 8.42404 28.2388 8.22404 28.4705 7.99739C28.5523 7.91739 27.9895 7.71077 27.7306 7.61745C26.8035 7.37481 24.9682 7.46407 24.0552 7.81073C23.7281 7.94406 24.8183 8.26404 25.8268 8.35737Z" fill="white"/>
<path fill-rule="evenodd" clip-rule="evenodd" d="M22.8226 15.3488C22.8226 15.3876 22.8494 15.412 22.8703 15.4308C22.9053 15.4626 22.9232 15.4788 22.7674 15.5223C22.5327 15.5918 21.8978 15.6843 21.4561 15.6728C21.3716 15.6728 21.2231 15.6477 21.0913 15.6255L21.0913 15.6255L21.0913 15.6255C20.9862 15.6077 20.8917 15.5918 20.8488 15.5918C20.791 15.5978 20.9222 15.6546 21.0288 15.7007C21.1259 15.7427 21.2025 15.7758 21.0972 15.7537C20.7936 15.6843 20.6141 15.6612 20.8488 15.7885C21.0282 15.881 21.4285 15.881 21.9944 15.8232C22.1103 15.811 22.3251 15.7766 22.5329 15.7432L22.5329 15.7432C22.7211 15.713 22.9036 15.6838 23.002 15.6728C23.0812 15.6661 23.115 15.6976 23.145 15.7256C23.1673 15.7464 23.1876 15.7653 23.2229 15.7653C23.9682 15.8 25.2933 15.7769 25.873 15.7075C26.3561 15.6496 26.5355 15.6728 26.6735 15.8116C26.9496 16.0777 26.6597 16.3091 25.873 16.448C24.9068 16.6215 24.5065 16.7719 24.1338 17.1075C23.2367 17.9174 24.2857 18.8315 26.2456 18.9587C27.3913 19.0397 28.1366 19.2249 27.9572 19.3753C27.8882 19.4331 27.129 19.5257 26.2595 19.5835C24.3685 19.7108 23.5265 19.9307 22.8088 20.5092C22.4085 20.8332 22.2705 21.0298 22.2705 21.296C22.2705 21.4398 22.2705 21.5277 22.2276 21.5815C22.1601 21.6662 21.9863 21.6662 21.5389 21.6662H21.5389C21.1524 21.6662 20.6141 21.6199 20.3657 21.5505C19.9792 21.4695 19.924 21.4695 20.062 21.6084C20.3381 21.8861 21.1248 22.129 21.7736 22.129C22.2705 22.129 22.5465 22.21 22.9882 22.4761C23.8716 23.02 24.8792 23.2282 26.5493 23.2167C28.7439 23.2051 30 22.7191 30 21.8976C30 21.2844 29.1718 20.9257 27.4465 20.7984C26.5769 20.729 24.8654 20.8447 24.12 21.0298C23.982 21.0646 24.1338 20.9836 24.4651 20.8447C24.8654 20.6827 25.5279 20.567 26.4251 20.4976C28.4127 20.3588 29.3099 19.9885 29.3099 19.2943C29.3099 18.6232 28.4265 18.2414 26.5355 18.091C24.6721 17.9521 24.5341 17.6744 26.1076 17.2695C27.2256 16.9918 27.7916 16.5752 27.7916 16.0083C27.7916 15.1405 27.2256 14.8513 25.3347 14.7703C24.189 14.724 23.913 14.7471 23.4161 14.9438C23.0848 15.0711 22.8226 15.2562 22.8226 15.3488ZM24.4611 15.258C24.3967 15.3639 24.2247 15.4697 24.1172 15.4697C23.9882 15.4697 23.9668 15.3639 24.0312 15.258C24.0957 15.131 24.2677 15.0464 24.3752 15.0464C24.5041 15.0464 24.5256 15.131 24.4611 15.258ZM25.8268 22.3574C26.7398 22.424 28.2388 22.224 28.4705 21.9974C28.5523 21.9174 27.9895 21.7108 27.7306 21.6175C26.8035 21.3748 24.9682 21.4641 24.0552 21.8107C23.7281 21.9441 24.8183 22.264 25.8268 22.3574Z" fill="white"/>
</svg>
