<svg width="32" height="24" viewBox="0 0 32 24" fill="none" xmlns="http://www.w3.org/2000/svg">
<mask id="mask0_270_67485" style="mask-type:luminance" maskUnits="userSpaceOnUse" x="0" y="0" width="32" height="24">
<rect width="32" height="24" fill="white"/>
</mask>
<g mask="url(#mask0_270_67485)">
<path fill-rule="evenodd" clip-rule="evenodd" d="M0 0V24H32V0H0Z" fill="#2E42A5"/>
<mask id="mask1_270_67485" style="mask-type:luminance" maskUnits="userSpaceOnUse" x="0" y="0" width="32" height="24">
<path fill-rule="evenodd" clip-rule="evenodd" d="M0 0V24H32V0H0Z" fill="white"/>
</mask>
<g mask="url(#mask1_270_67485)">
<rect width="18" height="14" fill="#2B409A"/>
<mask id="mask2_270_67485" style="mask-type:luminance" maskUnits="userSpaceOnUse" x="0" y="0" width="18" height="14">
<rect width="18" height="14" fill="white"/>
</mask>
<g mask="url(#mask2_270_67485)">
<path d="M-2.00427 12.9998L1.95668 14.737L18.0899 1.88875L20.1792 -0.69278L15.9435 -1.2734L9.36317 4.26329L4.06667 7.99372L-2.00427 12.9998Z" fill="#F7FCFF"/>
<path d="M-1.46204 14.2169L0.555885 15.2251L19.4289 -0.932648H16.5955L-1.46204 14.2169Z" fill="#F50100"/>
<path d="M20.0043 12.9998L16.0433 14.737L-0.0898743 1.88875L-2.17919 -0.69278L2.05648 -1.2734L8.63683 4.26329L13.9333 7.99372L20.0043 12.9998Z" fill="#F7FCFF"/>
<path d="M19.8691 13.8733L17.8512 14.8815L9.81489 7.96351L7.43229 7.19059L-2.3802 -0.683947H0.453194L10.2602 7.00368L12.8651 7.9305L19.8691 13.8733Z" fill="#F50100"/>
<mask id="path-10-outside-1_270_67485" maskUnits="userSpaceOnUse" x="-2" y="-2" width="22" height="18" fill="black">
<rect fill="white" x="-2" y="-2" width="22" height="18"/>
<path fill-rule="evenodd" clip-rule="evenodd" d="M9.98451 0H7.98451V6H0V8H7.98451V14H9.98451V8H18V6H9.98451V0Z"/>
</mask>
<path fill-rule="evenodd" clip-rule="evenodd" d="M9.98451 0H7.98451V6H0V8H7.98451V14H9.98451V8H18V6H9.98451V0Z" fill="#F50100"/>
<path d="M7.98451 0V-1.5H6.48451V0H7.98451ZM9.98451 0H11.4845V-1.5H9.98451V0ZM7.98451 6V7.5H9.48451V6H7.98451ZM0 6V4.5H-1.5V6H0ZM0 8H-1.5V9.5H0V8ZM7.98451 8H9.48451V6.5H7.98451V8ZM7.98451 14H6.48451V15.5H7.98451V14ZM9.98451 14V15.5H11.4845V14H9.98451ZM9.98451 8V6.5H8.48451V8H9.98451ZM18 8V9.5H19.5V8H18ZM18 6H19.5V4.5H18V6ZM9.98451 6H8.48451V7.5H9.98451V6ZM7.98451 1.5H9.98451V-1.5H7.98451V1.5ZM9.48451 6V0H6.48451V6H9.48451ZM0 7.5H7.98451V4.5H0V7.5ZM1.5 8V6H-1.5V8H1.5ZM7.98451 6.5H0V9.5H7.98451V6.5ZM9.48451 14V8H6.48451V14H9.48451ZM9.98451 12.5H7.98451V15.5H9.98451V12.5ZM8.48451 8V14H11.4845V8H8.48451ZM18 6.5H9.98451V9.5H18V6.5ZM16.5 6V8H19.5V6H16.5ZM9.98451 7.5H18V4.5H9.98451V7.5ZM8.48451 0V6H11.4845V0H8.48451Z" fill="#F7FCFF" mask="url(#path-10-outside-1_270_67485)"/>
</g>
<path d="M22.0379 9.78268H21.7879V10.0327C21.7879 10.4658 21.786 10.8902 21.784 11.3044C21.7794 12.2917 21.7751 13.2213 21.7984 14.0748C21.8315 15.2864 21.9204 16.3663 22.1494 17.2674C22.3787 18.17 22.7541 18.9153 23.3765 19.4323C24.001 19.9513 24.8424 20.214 25.9502 20.214C27.0707 20.214 27.935 19.8867 28.5845 19.2954C29.2287 18.7087 29.6387 17.883 29.8952 16.9251C30.406 15.0179 30.3309 12.4946 30.1896 10.0184L30.1762 9.78268H29.94H22.0379Z" fill="#B7E1FF" stroke="#F7FCFF" stroke-width="0.5"/>
<mask id="mask3_270_67485" style="mask-type:luminance" maskUnits="userSpaceOnUse" x="21" y="9" width="10" height="12">
<path d="M22.0379 9.78268H21.7879V10.0327C21.7879 10.4658 21.786 10.8902 21.784 11.3044C21.7794 12.2917 21.7751 13.2213 21.7984 14.0748C21.8315 15.2864 21.9204 16.3663 22.1494 17.2674C22.3787 18.17 22.7541 18.9153 23.3765 19.4323C24.001 19.9513 24.8424 20.214 25.9502 20.214C27.0707 20.214 27.935 19.8867 28.5845 19.2954C29.2287 18.7087 29.6387 17.883 29.8952 16.9251C30.406 15.0179 30.3309 12.4946 30.1896 10.0184L30.1762 9.78268H29.94H22.0379Z" fill="white" stroke="white" stroke-width="0.5"/>
</mask>
<g mask="url(#mask3_270_67485)">
<rect x="24" y="18" width="6" height="2" fill="#2E42A5"/>
<g filter="url(#filter0_d_270_67485)">
<rect x="20" y="8" width="12" height="6" fill="#FDFF00"/>
</g>
<path d="M25.1792 10.8766C25.1715 10.8014 25.1596 10.7042 25.1283 10.602L25.6007 12.0696C25.5569 12.0262 25.5104 11.9869 25.4763 11.9583C25.4697 11.9528 25.4634 11.9475 25.4574 11.9424C25.4278 11.9176 25.4039 11.8977 25.3793 11.8756C25.2783 11.785 25.2289 11.7171 25.2213 11.5885C25.2153 11.4865 25.2104 11.3884 25.2059 11.2968C25.1977 11.1309 25.1905 10.9858 25.1792 10.8766ZM24.8054 13.4585C24.8054 13.4585 24.8055 13.4585 24.8055 13.4585L24.8936 13.5294L24.8936 13.5294L24.8054 13.4585Z" fill="#F7FCFF" stroke="#272727"/>
<path d="M24.8263 14.0441H25.0263V17.9993H24.8263V14.0441Z" fill="#FDFF00"/>
<path fill-rule="evenodd" clip-rule="evenodd" d="M24.1003 16.8126H25.8831C25.8831 16.8126 25.9003 17.327 25.6297 17.2319C25.359 17.1367 25.6568 17.327 25.245 17.2319C24.8333 17.1367 24.4704 17.5305 24.3781 17.3336C24.2858 17.1367 23.9276 17.3895 24.0139 17.1011C24.1003 16.8126 24.1003 16.8126 24.1003 16.8126Z" fill="#F7FCFF"/>
<rect x="24.1333" y="16.7639" width="1.73333" height="0.2" fill="#212123"/>
<path fill-rule="evenodd" clip-rule="evenodd" d="M24.3469 16.0655H25.7731C25.7731 16.0655 25.7868 16.477 25.5703 16.4009C25.3538 16.3247 25.5921 16.477 25.2626 16.4009C24.9332 16.3247 24.6429 16.6398 24.5691 16.4823C24.4952 16.3247 24.2087 16.527 24.2778 16.2962C24.3469 16.0655 24.3469 16.0655 24.3469 16.0655Z" fill="#F7FCFF"/>
<rect x="24.3733" y="16.0265" width="1.38667" height="0.2" fill="#212123"/>
<path fill-rule="evenodd" clip-rule="evenodd" d="M24.0869 15.2449H25.632C25.632 15.2449 25.6469 15.6565 25.4123 15.5803C25.1778 15.5042 25.4359 15.6565 25.079 15.5803C24.7221 15.5042 24.4076 15.8193 24.3276 15.6618C24.2476 15.5042 23.9372 15.7065 24.012 15.4757C24.0869 15.2449 24.0869 15.2449 24.0869 15.2449Z" fill="#F7FCFF"/>
<rect x="24.1155" y="15.206" width="1.50222" height="0.2" fill="#212123"/>
<path fill-rule="evenodd" clip-rule="evenodd" d="M24.2136 14.5562H25.6398C25.6398 14.5562 25.6535 15.0706 25.437 14.9754C25.2205 14.8803 25.4588 15.0706 25.1293 14.9754C24.7999 14.8803 24.5096 15.2741 24.4358 15.0772C24.3619 14.8803 24.0754 15.1331 24.1445 14.8447C24.2136 14.5562 24.2136 14.5562 24.2136 14.5562Z" fill="#F7FCFF"/>
<rect x="24.24" y="14.5075" width="1.38667" height="0.2" fill="#212123"/>
<path d="M26.7424 14.5441H26.9424V18.4993H26.7424V14.5441Z" fill="#FDFF00"/>
<path fill-rule="evenodd" clip-rule="evenodd" d="M26.1003 16.9757H27.8831C27.8831 16.9757 27.9003 17.3873 27.6297 17.3111C27.359 17.235 27.6568 17.3873 27.245 17.3111C26.8333 17.235 26.4704 17.5501 26.3781 17.3925C26.2858 17.235 25.9276 17.4373 26.0139 17.2065C26.1003 16.9757 26.1003 16.9757 26.1003 16.9757Z" fill="#F7FCFF"/>
<rect x="26.1333" y="16.9368" width="1.73333" height="0.2" fill="#212123"/>
<path fill-rule="evenodd" clip-rule="evenodd" d="M26.3645 16.2303H27.7652C27.7652 16.2303 27.7787 16.539 27.5661 16.4819C27.3534 16.4248 27.5874 16.539 27.2639 16.4819C26.9404 16.4248 26.6553 16.6611 26.5827 16.543C26.5102 16.4248 26.2287 16.5765 26.2966 16.4034C26.3645 16.2303 26.3645 16.2303 26.3645 16.2303Z" fill="#F7FCFF"/>
<rect x="26.3904" y="16.2006" width="1.3619" height="0.2" fill="#212123"/>
<path fill-rule="evenodd" clip-rule="evenodd" d="M26.0859 15.4098H27.6141C27.6141 15.4098 27.6288 15.7185 27.3968 15.6614C27.1648 15.6043 27.4201 15.7185 27.0671 15.6614C26.7142 15.6043 26.4032 15.8406 26.324 15.7224C26.2449 15.6043 25.9379 15.756 26.0119 15.5829C26.0859 15.4098 26.0859 15.4098 26.0859 15.4098Z" fill="#F7FCFF"/>
<rect x="26.1143" y="15.38" width="1.48571" height="0.2" fill="#212123"/>
<path fill-rule="evenodd" clip-rule="evenodd" d="M26.2216 14.7193H27.6224C27.6224 14.7193 27.6359 15.1309 27.4233 15.0547C27.2106 14.9786 27.4446 15.1309 27.1211 15.0547C26.7975 14.9786 26.5124 15.2937 26.4399 15.1361C26.3674 14.9786 26.0859 15.1809 26.1538 14.9501C26.2216 14.7193 26.2216 14.7193 26.2216 14.7193Z" fill="#F7FCFF"/>
<rect x="26.2476" y="14.6804" width="1.3619" height="0.2" fill="#212123"/>
<path d="M29.4905 14.0586H29.6905V19.3172H29.4905V14.0586Z" fill="#FDFF00"/>
<path fill-rule="evenodd" clip-rule="evenodd" d="M28.6732 17.2531H30.9422C30.9422 17.2531 30.9641 17.6647 30.6196 17.5885C30.2751 17.5124 30.6542 17.6647 30.1301 17.5885C29.606 17.5124 29.1442 17.8275 29.0267 17.6699C28.9092 17.5124 28.4533 17.7147 28.5632 17.4839C28.6732 17.2531 28.6732 17.2531 28.6732 17.2531Z" fill="#F7FCFF"/>
<rect x="28.7152" y="17.2142" width="2.20606" height="0.2" fill="#212123"/>
<path fill-rule="evenodd" clip-rule="evenodd" d="M29.0095 16.2555H30.7923C30.7923 16.2555 30.8095 16.5641 30.5388 16.507C30.2682 16.4499 30.566 16.5641 30.1542 16.507C29.7424 16.4499 29.3796 16.6862 29.2873 16.5681C29.1949 16.4499 28.8367 16.6016 28.9231 16.4285C29.0095 16.2555 29.0095 16.2555 29.0095 16.2555Z" fill="#F7FCFF"/>
<rect x="29.0425" y="16.2309" width="1.73333" height="0.2" fill="#212123"/>
<path fill-rule="evenodd" clip-rule="evenodd" d="M28.8276 14.9349H30.6104C30.6104 14.9349 30.6276 15.3465 30.357 15.2703C30.0863 15.1942 30.3841 15.3465 29.9723 15.2703C29.5606 15.1942 29.1977 15.5093 29.1054 15.3517C29.0131 15.1942 28.6549 15.3965 28.7412 15.1657C28.8276 14.9349 28.8276 14.9349 28.8276 14.9349Z" fill="#F7FCFF"/>
<rect x="28.8606" y="14.896" width="1.73333" height="0.2" fill="#212123"/>
<path fill-rule="evenodd" clip-rule="evenodd" d="M24.1851 17.6868C24.1851 17.6868 25.1107 18.1897 26.522 18.1031C27.9333 18.0165 27.832 18.2889 28.198 17.9013C28.5641 17.5138 28.5962 17.6001 29.0528 17.3967C29.5094 17.1933 29.5749 17.0014 29.8103 17.0014C30.0457 17.0014 32.5524 16.9007 32.5524 16.9007C32.5524 16.9007 32.323 17.1067 32.323 17.3967C32.323 17.6868 32.4759 17.7165 32.323 17.9795C32.1701 18.2426 31.9973 18.5943 31.7754 18.6963C31.5534 18.7984 28.5574 18.8629 27.7935 18.8629C27.0295 18.8629 25.4604 18.948 25.2799 18.8629C25.0993 18.7778 24.1851 17.6868 24.1851 17.6868Z" fill="#272727"/>
<path fill-rule="evenodd" clip-rule="evenodd" d="M22.1177 15.6864L23.0109 14.8636C23.0109 14.8636 23.0499 14.8636 23.2159 15.275C23.3819 15.6864 23.3897 16.2491 23.5624 16.1085C23.7351 15.968 24.0008 16.0978 24.1127 15.6864C24.2246 15.275 24.2176 14.7423 24.3599 15.0086C24.5021 15.275 24.4176 14.8856 24.6447 15.4971C24.8717 16.1085 24.9616 15.2344 25.0865 16.1085C25.2113 16.9827 25.317 17.2843 25.317 17.4877C25.317 17.691 26.4542 18.2969 26.018 18.7142C25.5818 19.1314 25.7053 18.9348 25.317 19.1972C24.9288 19.4596 24.5309 19.307 25.0865 19.5131C25.6421 19.7192 25.5625 20.0928 25.5625 20.3682C25.5625 20.6437 25.5283 20.7671 25.0865 20.7054C24.6447 20.6437 24.1074 20.8636 24 20.8636C23.8927 20.8636 22.5974 20.5997 22.5974 20.0564C22.5974 19.5131 22.1177 15.6864 22.1177 15.6864Z" fill="#CE6201"/>
</g>
</g>
</g>
<defs>
<filter id="filter0_d_270_67485" x="20" y="8" width="12" height="7" filterUnits="userSpaceOnUse" color-interpolation-filters="sRGB">
<feFlood flood-opacity="0" result="BackgroundImageFix"/>
<feColorMatrix in="SourceAlpha" type="matrix" values="0 0 0 0 0 0 0 0 0 0 0 0 0 0 0 0 0 0 127 0" result="hardAlpha"/>
<feOffset dy="1"/>
<feColorMatrix type="matrix" values="0 0 0 0 0 0 0 0 0 0 0 0 0 0 0 0 0 0 0.5 0"/>
<feBlend mode="normal" in2="BackgroundImageFix" result="effect1_dropShadow_270_67485"/>
<feBlend mode="normal" in="SourceGraphic" in2="effect1_dropShadow_270_67485" result="shape"/>
</filter>
</defs>
</svg>
