<svg width="32" height="24" viewBox="0 0 32 24" fill="none" xmlns="http://www.w3.org/2000/svg">
<mask id="mask0_270_67555" style="mask-type:luminance" maskUnits="userSpaceOnUse" x="0" y="0" width="32" height="24">
<rect width="32" height="24" fill="white"/>
</mask>
<g mask="url(#mask0_270_67555)">
<path fill-rule="evenodd" clip-rule="evenodd" d="M0 0V24H32V0H0Z" fill="#2E42A5"/>
<mask id="mask1_270_67555" style="mask-type:luminance" maskUnits="userSpaceOnUse" x="0" y="0" width="32" height="24">
<path fill-rule="evenodd" clip-rule="evenodd" d="M0 0V24H32V0H0Z" fill="white"/>
</mask>
<g mask="url(#mask1_270_67555)">
<rect width="18" height="14" fill="#2B409A"/>
<mask id="mask2_270_67555" style="mask-type:luminance" maskUnits="userSpaceOnUse" x="0" y="0" width="18" height="14">
<rect width="18" height="14" fill="white"/>
</mask>
<g mask="url(#mask2_270_67555)">
<path d="M-2.00427 12.9998L1.95668 14.737L18.0899 1.88872L20.1792 -0.69281L15.9435 -1.27343L9.36317 4.26326L4.06667 7.99369L-2.00427 12.9998Z" fill="#F7FCFF"/>
<path d="M-1.46204 14.2169L0.555885 15.225L19.4289 -0.932678H16.5955L-1.46204 14.2169Z" fill="#F50100"/>
<path d="M20.0043 12.9998L16.0433 14.737L-0.0898743 1.88872L-2.17919 -0.69281L2.05648 -1.27343L8.63683 4.26326L13.9333 7.99369L20.0043 12.9998Z" fill="#F7FCFF"/>
<path d="M19.8691 13.8733L17.8512 14.8815L9.81489 7.96351L7.43229 7.19059L-2.3802 -0.683947H0.453194L10.2602 7.00368L12.8651 7.9305L19.8691 13.8733Z" fill="#F50100"/>
<mask id="path-10-outside-1_270_67555" maskUnits="userSpaceOnUse" x="-2" y="-2" width="22" height="18" fill="black">
<rect fill="white" x="-2" y="-2" width="22" height="18"/>
<path fill-rule="evenodd" clip-rule="evenodd" d="M9.98451 0H7.98451V6H0V8H7.98451V14H9.98451V8H18V6H9.98451V0Z"/>
</mask>
<path fill-rule="evenodd" clip-rule="evenodd" d="M9.98451 0H7.98451V6H0V8H7.98451V14H9.98451V8H18V6H9.98451V0Z" fill="#F50100"/>
<path d="M7.98451 0V-1.5H6.48451V0H7.98451ZM9.98451 0H11.4845V-1.5H9.98451V0ZM7.98451 6V7.5H9.48451V6H7.98451ZM0 6V4.5H-1.5V6H0ZM0 8H-1.5V9.5H0V8ZM7.98451 8H9.48451V6.5H7.98451V8ZM7.98451 14H6.48451V15.5H7.98451V14ZM9.98451 14V15.5H11.4845V14H9.98451ZM9.98451 8V6.5H8.48451V8H9.98451ZM18 8V9.5H19.5V8H18ZM18 6H19.5V4.5H18V6ZM9.98451 6H8.48451V7.5H9.98451V6ZM7.98451 1.5H9.98451V-1.5H7.98451V1.5ZM9.48451 6V0H6.48451V6H9.48451ZM0 7.5H7.98451V4.5H0V7.5ZM1.5 8V6H-1.5V8H1.5ZM7.98451 6.5H0V9.5H7.98451V6.5ZM9.48451 14V8H6.48451V14H9.48451ZM9.98451 12.5H7.98451V15.5H9.98451V12.5ZM8.48451 8V14H11.4845V8H8.48451ZM18 6.5H9.98451V9.5H18V6.5ZM16.5 6V8H19.5V6H16.5ZM9.98451 7.5H18V4.5H9.98451V7.5ZM8.48451 0V6H11.4845V0H8.48451Z" fill="#F7FCFF" mask="url(#path-10-outside-1_270_67555)"/>
</g>
<path fill-rule="evenodd" clip-rule="evenodd" d="M20.2467 10.0327V16.5619C20.2467 16.5619 20.15 21.964 25.1287 21.964C30.1074 21.964 30.1074 16.5619 30.1074 16.5619V10.0327H20.2467Z" fill="#3B7E05" stroke="#F7FCFF" stroke-width="0.5"/>
<path fill-rule="evenodd" clip-rule="evenodd" d="M20.237 19.8888L21.0302 19.0925C22.2698 20.6234 23.5736 21.3685 24.9599 21.3685C26.3461 21.3685 27.6488 20.6235 28.8865 19.0928L29.3379 19.5454L29.3571 19.517C29.6331 19.7506 29.8151 19.9693 29.9024 20.2225C30.0447 20.635 29.8927 21.0314 29.5592 21.2411C29.4765 21.2931 29.4108 21.3306 29.3524 21.3578C29.217 21.4208 29.1085 21.4482 28.9474 21.4028C28.7834 21.3566 28.6455 21.2303 28.5742 21.0567C27.4493 22.0516 26.2419 22.5577 24.9599 22.5577C23.6889 22.5577 22.4907 22.0603 21.373 21.0822C21.2983 21.2529 21.159 21.3755 20.9952 21.4186C20.8333 21.4613 20.7253 21.432 20.591 21.3666C20.5331 21.3384 20.4681 21.2998 20.3863 21.2463C20.0565 21.0308 19.9114 20.6319 20.0609 20.2219C20.1016 20.1104 20.1668 20.0069 20.2513 19.9064C20.2465 19.9005 20.2418 19.8946 20.237 19.8888Z" fill="#FFD018"/>
<path d="M21.0302 19.0925L21.2245 18.9351L21.0494 18.7189L20.8531 18.916L21.0302 19.0925ZM20.237 19.8888L20.0599 19.7123L19.9014 19.8715L20.0427 20.0461L20.237 19.8888ZM28.8865 19.0928L29.0635 18.9162L28.867 18.7193L28.692 18.9356L28.8865 19.0928ZM29.3379 19.5454L29.1609 19.7219L29.3753 19.9368L29.5451 19.6852L29.3379 19.5454ZM29.3571 19.517L29.5186 19.3262L29.3058 19.1461L29.1499 19.3771L29.3571 19.517ZM29.9024 20.2225L30.1387 20.141V20.141L29.9024 20.2225ZM29.5592 21.2411L29.4261 21.0295V21.0295L29.5592 21.2411ZM29.3524 21.3578L29.2469 21.1312L29.3524 21.3578ZM28.9474 21.4028L28.8795 21.6434L28.9474 21.4028ZM28.5742 21.0567L28.8055 20.9617L28.6719 20.6365L28.4086 20.8694L28.5742 21.0567ZM21.373 21.0822L21.5377 20.894L21.2807 20.6692L21.144 20.982L21.373 21.0822ZM20.9952 21.4186L20.9316 21.1769H20.9316L20.9952 21.4186ZM20.591 21.3666L20.7005 21.1418L20.7005 21.1418L20.591 21.3666ZM20.3863 21.2463L20.2496 21.4556L20.2496 21.4556L20.3863 21.2463ZM20.0609 20.2219L20.2958 20.3075V20.3075L20.0609 20.2219ZM20.2513 19.9064L20.4427 20.0671L20.5756 19.909L20.4453 19.7487L20.2513 19.9064ZM20.8531 18.916L20.0599 19.7123L20.4142 20.0652L21.2073 19.2689L20.8531 18.916ZM24.9599 21.1185C23.6756 21.1185 22.4363 20.4318 21.2245 18.9351L20.8359 19.2498C22.1032 20.815 23.4716 21.6185 24.9599 21.6185V21.1185ZM28.692 18.9356C27.4822 20.4319 26.2441 21.1185 24.9599 21.1185V21.6185C26.4482 21.6185 27.8154 20.815 29.0809 19.25L28.692 18.9356ZM29.5149 19.3688L29.0635 18.9162L28.7095 19.2693L29.1609 19.7219L29.5149 19.3688ZM29.1499 19.3771L29.1307 19.4055L29.5451 19.6852L29.5643 19.6569L29.1499 19.3771ZM30.1387 20.141C30.0301 19.8262 29.8093 19.5722 29.5186 19.3262L29.1955 19.7078C29.4569 19.929 29.6 20.1124 29.6661 20.3041L30.1387 20.141ZM29.6922 21.4528C30.1249 21.1808 30.3186 20.6626 30.1387 20.141L29.6661 20.3041C29.7708 20.6075 29.6606 20.8821 29.4261 21.0295L29.6922 21.4528ZM29.4579 21.5844C29.5301 21.5508 29.6059 21.5071 29.6922 21.4528L29.4261 21.0295C29.347 21.0792 29.2915 21.1104 29.2469 21.1312L29.4579 21.5844ZM28.8795 21.6434C28.9889 21.6743 29.0915 21.683 29.1944 21.6685C29.2941 21.6545 29.3809 21.6203 29.4579 21.5844L29.2469 21.1312C29.1885 21.1583 29.1533 21.1694 29.1246 21.1734C29.0992 21.177 29.067 21.1768 29.0152 21.1622L28.8795 21.6434ZM28.3429 21.1516C28.4408 21.39 28.6352 21.5745 28.8795 21.6434L29.0152 21.1622C28.9315 21.1386 28.8502 21.0706 28.8055 20.9617L28.3429 21.1516ZM24.9599 22.8077C26.314 22.8077 27.5782 22.2714 28.7398 21.2439L28.4086 20.8694C27.3203 21.8319 26.1699 22.3077 24.9599 22.3077V22.8077ZM21.2084 21.2703C22.3629 22.2806 23.6175 22.8077 24.9599 22.8077V22.3077C23.7602 22.3077 22.6186 21.84 21.5377 20.894L21.2084 21.2703ZM21.0588 21.6604C21.3028 21.5962 21.4995 21.4169 21.6021 21.1823L21.144 20.982C21.0972 21.089 21.0152 21.1549 20.9316 21.1769L21.0588 21.6604ZM20.4816 21.5914C20.5579 21.6285 20.6441 21.6642 20.7435 21.68C20.8462 21.6963 20.9489 21.6893 21.0588 21.6604L20.9316 21.1769C20.8796 21.1906 20.8473 21.1902 20.822 21.1862C20.7934 21.1817 20.7584 21.17 20.7005 21.1418L20.4816 21.5914ZM20.2496 21.4556C20.335 21.5114 20.41 21.5565 20.4816 21.5914L20.7005 21.1418C20.6562 21.1203 20.6013 21.0881 20.5231 21.037L20.2496 21.4556ZM19.826 20.1363C19.637 20.6546 19.8218 21.1761 20.2496 21.4556L20.5231 21.037C20.2912 20.8856 20.1858 20.6091 20.2958 20.3075L19.826 20.1363ZM20.0599 19.7456C19.9622 19.8619 19.8792 19.9903 19.826 20.1363L20.2958 20.3075C20.3239 20.2305 20.3715 20.152 20.4427 20.0671L20.0599 19.7456ZM20.0427 20.0461C20.0476 20.0521 20.0525 20.0581 20.0573 20.064L20.4453 19.7487C20.4406 19.7429 20.436 19.7372 20.4313 19.7315L20.0427 20.0461Z" fill="white"/>
<path fill-rule="evenodd" clip-rule="evenodd" d="M21.9558 11.4603L22.0671 11.5011C22.158 11.2932 22.173 11.1347 22.0671 11.033L22.0641 11.0284C22.0394 10.9898 21.9955 10.9213 22.0671 10.7749L22.0161 10.6703C21.9125 10.8822 21.8658 11.0351 21.9468 11.1382L21.9509 11.1435L21.9558 11.1479C22.0027 11.1901 22.0224 11.3081 21.9558 11.4603ZM21.9558 12.9738L22.0671 13.0146C22.158 12.8067 22.173 12.6483 22.0671 12.5466L22.0641 12.5419C22.0394 12.5033 21.9955 12.4348 22.0671 12.2884L22.0161 12.1838C21.9125 12.3957 21.8658 12.5486 21.9468 12.6517L21.9509 12.657L21.9558 12.6614C22.0027 12.7036 22.0224 12.8216 21.9558 12.9738ZM22.0671 14.3659L21.9558 14.3252C22.0224 14.1729 22.0027 14.055 21.9558 14.0128L21.9509 14.0084L21.9468 14.0031C21.8658 13.9 21.9125 13.7471 22.0161 13.5352L22.0671 13.6398C21.9955 13.7862 22.0394 13.8546 22.0641 13.8932L22.0671 13.8979C22.173 13.9996 22.158 14.158 22.0671 14.3659ZM22.7325 15.9468L22.8438 15.9876C22.9347 15.7796 22.9497 15.6212 22.8438 15.5195L22.8408 15.5148C22.8161 15.4763 22.7722 15.4078 22.8438 15.2614L22.7928 15.1568C22.6892 15.3687 22.6425 15.5216 22.7235 15.6247L22.7276 15.63L22.7325 15.6344C22.7794 15.6766 22.7991 15.7946 22.7325 15.9468ZM21.9214 17.2849L21.8102 17.2441C21.8767 17.0919 21.8571 16.9739 21.8102 16.9317L21.8053 16.9273L21.8012 16.922C21.7202 16.8189 21.7669 16.666 21.8704 16.4541L21.9214 16.5587C21.8499 16.7051 21.8938 16.7736 21.9185 16.8121L21.9214 16.8168C22.0274 16.9185 22.0124 17.0769 21.9214 17.2849ZM21.8102 18.7576L21.9214 18.7984C22.0124 18.5905 22.0274 18.432 21.9214 18.3303L21.9185 18.3257C21.8938 18.2871 21.8499 18.2186 21.9214 18.0722L21.8704 17.9676C21.7669 18.1795 21.7202 18.3324 21.8012 18.4355L21.8053 18.4408L21.8102 18.4452C21.8571 18.4874 21.8767 18.6054 21.8102 18.7576ZM26.7273 18.7984L26.616 18.7576C26.6826 18.6054 26.6629 18.4874 26.616 18.4452L26.6111 18.4408L26.607 18.4355C26.526 18.3324 26.5727 18.1795 26.6763 17.9676L26.7273 18.0722C26.6557 18.2186 26.6996 18.2871 26.7243 18.3257L26.7273 18.3303C26.8332 18.432 26.8182 18.5905 26.7273 18.7984ZM26.616 17.2981L26.7273 17.3389C26.8182 17.131 26.8332 16.9726 26.7273 16.8709L26.7243 16.8662C26.6996 16.8276 26.6557 16.7591 26.7273 16.6128L26.6763 16.5081C26.5727 16.72 26.526 16.873 26.607 16.9761L26.6111 16.9813L26.616 16.9857C26.6629 17.0279 26.6826 17.1459 26.616 17.2981ZM26.7273 15.8795L26.616 15.8387C26.6826 15.6865 26.6629 15.5685 26.616 15.5263L26.6111 15.5219L26.607 15.5166C26.526 15.4135 26.5727 15.2606 26.6763 15.0487L26.7273 15.1533C26.6557 15.2997 26.6996 15.3682 26.7243 15.4067L26.7273 15.4114C26.8332 15.5131 26.8182 15.6715 26.7273 15.8795ZM26.5675 14.4333L26.6787 14.4741C26.7696 14.2661 26.7847 14.1077 26.6787 14.006L26.6757 14.0013C26.651 13.9628 26.6072 13.8943 26.6787 13.7479L26.6277 13.6433C26.5241 13.8552 26.4775 14.0081 26.5584 14.1112L26.5626 14.1165L26.5675 14.1209C26.6143 14.1631 26.634 14.2811 26.5675 14.4333ZM26.6787 12.9605L26.5675 12.9198C26.634 12.7675 26.6143 12.6496 26.5675 12.6073L26.5626 12.6029L26.5584 12.5977C26.4775 12.4946 26.5241 12.3417 26.6277 12.1297L26.6787 12.2344C26.6072 12.3807 26.651 12.4492 26.6757 12.4878L26.6787 12.4925C26.7847 12.5942 26.7696 12.7526 26.6787 12.9605ZM26.5675 11.5143L26.6787 11.5551C26.7696 11.3472 26.7847 11.1888 26.6787 11.0871C26.6778 11.0856 26.6768 11.084 26.6757 11.0824C26.651 11.0438 26.6072 10.9753 26.6787 10.829L26.6277 10.7243C26.5241 10.9363 26.4775 11.0892 26.5584 11.1923L26.5626 11.1975L26.5675 11.2019C26.6143 11.2441 26.634 11.3621 26.5675 11.5143Z" fill="#F50100"/>
<path fill-rule="evenodd" clip-rule="evenodd" d="M22.7601 10.8148C22.7682 10.7992 22.7727 10.7813 22.7727 10.7622C22.7727 10.7025 22.728 10.6541 22.6727 10.6541C22.6175 10.6541 22.5727 10.7025 22.5727 10.7622C22.5727 10.7879 22.5811 10.8115 22.595 10.8301L22.2166 11.416L22.256 11.4476L22.6342 10.8619C22.6461 10.8673 22.6591 10.8703 22.6727 10.8703C22.6922 10.8703 22.7104 10.8643 22.7257 10.8539L23.1237 11.448L23.1626 11.4156L22.7601 10.8148ZM22.7465 11.3217C22.7628 11.3024 22.7727 11.2768 22.7727 11.2486C22.7727 11.1889 22.728 11.1405 22.6727 11.1405C22.6175 11.1405 22.5727 11.1889 22.5727 11.2486C22.5727 11.2851 22.5894 11.3173 22.6149 11.3369L22.5201 11.4509H21.8777C21.8777 11.4509 21.9481 11.6119 22.1671 11.6544C22.234 11.718 22.4051 11.8363 22.4051 11.8363L22.3075 11.9549H23.0001V11.8363C23.1689 11.8351 23.2322 11.7018 23.2549 11.6542C23.2642 11.6346 23.2666 11.6296 23.2666 11.6544C23.2666 11.7395 23.3898 11.6544 23.3898 11.6544C23.3898 11.6544 23.5942 11.4509 23.5942 11.2569C23.5942 11.0629 23.1667 11.4509 23.1667 11.4509H22.8765L22.7465 11.3217ZM21.8777 12.9644H22.5201L22.6149 12.8504C22.5894 12.8308 22.5727 12.7986 22.5727 12.7622C22.5727 12.7025 22.6175 12.6541 22.6727 12.6541C22.728 12.6541 22.7727 12.7025 22.7727 12.7622C22.7727 12.7903 22.7628 12.8159 22.7465 12.8352L22.8765 12.9644H23.1667C23.1667 12.9644 23.5942 12.5764 23.5942 12.7704C23.5942 12.9644 23.3898 13.1679 23.3898 13.1679C23.3898 13.1679 23.2666 13.253 23.2666 13.1679C23.2666 13.1431 23.2642 13.1481 23.2549 13.1678C23.2322 13.2153 23.1689 13.3486 23.0001 13.3498V13.4684H22.3075L22.4051 13.3498C22.4051 13.3498 22.234 13.2315 22.1671 13.1679C21.9481 13.1254 21.8777 12.9644 21.8777 12.9644ZM22.7601 12.3283C22.7682 12.3127 22.7727 12.2948 22.7727 12.2757C22.7727 12.216 22.728 12.1676 22.6727 12.1676C22.6175 12.1676 22.5727 12.216 22.5727 12.2757C22.5727 12.3014 22.5811 12.3251 22.595 12.3436L22.2166 12.9295L22.256 12.9611L22.6342 12.3755C22.6461 12.3808 22.6591 12.3838 22.6727 12.3838C22.6922 12.3838 22.7104 12.3778 22.7257 12.3674L23.1237 12.9615L23.1626 12.9291L22.7601 12.3283ZM21.8777 14.3157H22.5201L22.6149 14.2017C22.5894 14.1821 22.5727 14.1499 22.5727 14.1135C22.5727 14.0538 22.6175 14.0054 22.6727 14.0054C22.728 14.0054 22.7727 14.0538 22.7727 14.1135C22.7727 14.1417 22.7628 14.1673 22.7465 14.1865L22.8765 14.3157H23.1667C23.1667 14.3157 23.5942 13.9278 23.5942 14.1218C23.5942 14.3157 23.3898 14.5193 23.3898 14.5193C23.3898 14.5193 23.2666 14.6043 23.2666 14.5193C23.2666 14.4944 23.2642 14.4995 23.2549 14.5191C23.2322 14.5667 23.1689 14.6999 23.0001 14.7012V14.8197H22.3075L22.4051 14.7012C22.4051 14.7012 22.234 14.5829 22.1671 14.5193C21.9481 14.4768 21.8777 14.3157 21.8777 14.3157ZM22.7601 13.6797C22.7682 13.6641 22.7727 13.6461 22.7727 13.627C22.7727 13.5673 22.728 13.5189 22.6727 13.5189C22.6175 13.5189 22.5727 13.5673 22.5727 13.627C22.5727 13.6528 22.5811 13.6764 22.595 13.695L22.2166 14.2809L22.256 14.3124L22.6342 13.7268C22.6461 13.7322 22.6591 13.7351 22.6727 13.7351C22.6922 13.7351 22.7104 13.7291 22.7257 13.7187L23.1237 14.3128L23.1626 14.2805L22.7601 13.6797ZM22.6544 15.9374H23.2968L23.3916 15.8233C23.3661 15.8037 23.3494 15.7715 23.3494 15.7351C23.3494 15.6754 23.3942 15.627 23.4494 15.627C23.5047 15.627 23.5494 15.6754 23.5494 15.7351C23.5494 15.7633 23.5395 15.7889 23.5232 15.8081L23.6532 15.9374H23.9434C23.9434 15.9374 24.3709 15.5494 24.3709 15.7434C24.3709 15.9374 24.1665 16.1409 24.1665 16.1409C24.1665 16.1409 24.0433 16.226 24.0433 16.1409C24.0433 16.1161 24.0409 16.1211 24.0316 16.1407C24.0089 16.1883 23.9456 16.3215 23.7768 16.3228V16.4414H23.0842L23.1818 16.3228C23.1818 16.3228 23.0107 16.2045 22.9438 16.1409C22.7248 16.0984 22.6544 15.9374 22.6544 15.9374ZM23.5368 15.3013C23.5449 15.2857 23.5494 15.2678 23.5494 15.2486C23.5494 15.1889 23.5047 15.1405 23.4494 15.1405C23.3942 15.1405 23.3494 15.1889 23.3494 15.2486C23.3494 15.2744 23.3578 15.298 23.3717 15.3166L22.9933 15.9025L23.0327 15.9341L23.4109 15.3484C23.4228 15.3538 23.4358 15.3568 23.4494 15.3568C23.4689 15.3568 23.4871 15.3507 23.5024 15.3404L23.9004 15.9344L23.9393 15.9021L23.5368 15.3013ZM21.7321 17.2347H22.3745L22.4693 17.1206C22.4438 17.101 22.4271 17.0688 22.4271 17.0324C22.4271 16.9727 22.4719 16.9243 22.5271 16.9243C22.5823 16.9243 22.6271 16.9727 22.6271 17.0324C22.6271 17.0606 22.6172 17.0862 22.6009 17.1054L22.7309 17.2347H23.021C23.021 17.2347 23.4486 16.8467 23.4486 17.0407C23.4486 17.2347 23.2441 17.4382 23.2441 17.4382C23.2441 17.4382 23.121 17.5233 23.121 17.4382C23.121 17.4134 23.1186 17.4184 23.1092 17.438C23.0866 17.4856 23.0232 17.6188 22.8545 17.6201V17.7386H22.1619L22.2595 17.6201C22.2595 17.6201 22.0884 17.5018 22.0215 17.4382C21.8024 17.3957 21.7321 17.2347 21.7321 17.2347ZM22.6145 16.5986C22.6225 16.583 22.6271 16.5651 22.6271 16.5459C22.6271 16.4862 22.5823 16.4378 22.5271 16.4378C22.4719 16.4378 22.4271 16.4862 22.4271 16.5459C22.4271 16.5717 22.4354 16.5953 22.4493 16.6139L22.0709 17.1998L22.1104 17.2314L22.4886 16.6457C22.5004 16.6511 22.5134 16.6541 22.5271 16.6541C22.5466 16.6541 22.5647 16.648 22.5801 16.6377L22.9781 17.2317L23.017 17.1994L22.6145 16.5986ZM21.7321 18.7482H22.3745L22.4693 18.6341C22.4438 18.6146 22.4271 18.5824 22.4271 18.5459C22.4271 18.4862 22.4719 18.4378 22.5271 18.4378C22.5823 18.4378 22.6271 18.4862 22.6271 18.5459C22.6271 18.5741 22.6172 18.5997 22.6009 18.6189L22.7309 18.7482H23.021C23.021 18.7482 23.4486 18.3602 23.4486 18.5542C23.4486 18.7482 23.2441 18.9517 23.2441 18.9517C23.2441 18.9517 23.121 19.0368 23.121 18.9517C23.121 18.9269 23.1186 18.9319 23.1092 18.9515C23.0866 18.9991 23.0232 19.1324 22.8545 19.1336V19.2522H22.1619L22.2595 19.1336C22.2595 19.1336 22.0884 19.0153 22.0215 18.9517C21.8024 18.9092 21.7321 18.7482 21.7321 18.7482ZM22.6145 18.1121C22.6225 18.0965 22.6271 18.0786 22.6271 18.0595C22.6271 17.9998 22.5823 17.9514 22.5271 17.9514C22.4719 17.9514 22.4271 17.9998 22.4271 18.0595C22.4271 18.0852 22.4354 18.1088 22.4493 18.1274L22.0709 18.7133L22.1104 18.7449L22.4886 18.1592C22.5004 18.1646 22.5134 18.1676 22.5271 18.1676C22.5466 18.1676 22.5647 18.1616 22.5801 18.1512L22.9781 18.7453L23.017 18.7129L22.6145 18.1121ZM26.5379 18.7482H27.1803L27.2751 18.6341C27.2496 18.6146 27.2329 18.5824 27.2329 18.5459C27.2329 18.4862 27.2777 18.4378 27.3329 18.4378C27.3882 18.4378 27.4329 18.4862 27.4329 18.5459C27.4329 18.5741 27.423 18.5997 27.4067 18.6189L27.5367 18.7482H27.8269C27.8269 18.7482 28.2544 18.3602 28.2544 18.5542C28.2544 18.7482 28.05 18.9517 28.05 18.9517C28.05 18.9517 27.9268 19.0368 27.9268 18.9517C27.9268 18.9269 27.9244 18.9319 27.915 18.9515C27.8924 18.9991 27.8291 19.1324 27.6603 19.1336V19.2522H26.9677L27.0653 19.1336C27.0653 19.1336 26.8942 19.0153 26.8273 18.9517C26.6083 18.9092 26.5379 18.7482 26.5379 18.7482ZM27.4203 18.1121C27.4284 18.0965 27.4329 18.0786 27.4329 18.0595C27.4329 17.9998 27.3882 17.9514 27.3329 17.9514C27.2777 17.9514 27.2329 17.9998 27.2329 18.0595C27.2329 18.0852 27.2413 18.1088 27.2552 18.1274L26.8768 18.7133L26.9162 18.7449L27.2944 18.1592C27.3063 18.1646 27.3193 18.1676 27.3329 18.1676C27.3524 18.1676 27.3706 18.1616 27.3859 18.1512L27.7839 18.7453L27.8228 18.7129L27.4203 18.1121ZM26.5379 17.2887H27.1803L27.2751 17.1747C27.2496 17.1551 27.2329 17.1229 27.2329 17.0865C27.2329 17.0268 27.2777 16.9784 27.3329 16.9784C27.3882 16.9784 27.4329 17.0268 27.4329 17.0865C27.4329 17.1146 27.423 17.1403 27.4067 17.1595L27.5367 17.2887H27.8269C27.8269 17.2887 28.2544 16.9008 28.2544 17.0947C28.2544 17.2887 28.05 17.4923 28.05 17.4923C28.05 17.4923 27.9268 17.5773 27.9268 17.4923C27.9268 17.4674 27.9244 17.4725 27.9151 17.4921C27.8924 17.5396 27.8291 17.6729 27.6603 17.6742V17.7927H26.9677L27.0653 17.6742C27.0653 17.6742 26.8942 17.5558 26.8273 17.4923C26.6083 17.4497 26.5379 17.2887 26.5379 17.2887ZM27.4203 16.6526C27.4284 16.6371 27.4329 16.6191 27.4329 16.6C27.4329 16.5403 27.3882 16.4919 27.3329 16.4919C27.2777 16.4919 27.2329 16.5403 27.2329 16.6C27.2329 16.6257 27.2413 16.6494 27.2552 16.6679L26.8768 17.2539L26.9162 17.2854L27.2944 16.6998C27.3063 16.7051 27.3193 16.7081 27.3329 16.7081C27.3524 16.7081 27.3706 16.7021 27.3859 16.6917L27.7839 17.2858L27.8228 17.2535L27.4203 16.6526ZM26.5379 15.8293H27.1803L27.2751 15.7152C27.2496 15.6956 27.2329 15.6634 27.2329 15.627C27.2329 15.5673 27.2777 15.5189 27.3329 15.5189C27.3882 15.5189 27.4329 15.5673 27.4329 15.627C27.4329 15.6552 27.423 15.6808 27.4067 15.7L27.5367 15.8293H27.8269C27.8269 15.8293 28.2544 15.4413 28.2544 15.6353C28.2544 15.8293 28.05 16.0328 28.05 16.0328C28.05 16.0328 27.9268 16.1178 27.9268 16.0328C27.9268 16.008 27.9244 16.013 27.9151 16.0326C27.8924 16.0802 27.8291 16.2134 27.6603 16.2147V16.3332H26.9677L27.0653 16.2147C27.0653 16.2147 26.8942 16.0964 26.8273 16.0328C26.6083 15.9903 26.5379 15.8293 26.5379 15.8293ZM27.4203 15.1932C27.4284 15.1776 27.4329 15.1597 27.4329 15.1405C27.4329 15.0808 27.3882 15.0324 27.3329 15.0324C27.2777 15.0324 27.2329 15.0808 27.2329 15.1405C27.2329 15.1663 27.2413 15.1899 27.2552 15.2085L26.8768 15.7944L26.9162 15.826L27.2944 15.2403C27.3063 15.2457 27.3193 15.2486 27.3329 15.2486C27.3524 15.2486 27.3706 15.2426 27.3859 15.2322L27.7839 15.8263L27.8228 15.794L27.4203 15.1932ZM26.4893 14.4239H27.1318L27.2266 14.3098C27.201 14.2902 27.1844 14.258 27.1844 14.2216C27.1844 14.1619 27.2292 14.1135 27.2844 14.1135C27.3396 14.1135 27.3844 14.1619 27.3844 14.2216C27.3844 14.2498 27.3745 14.2754 27.3582 14.2946L27.4881 14.4239H27.7783C27.7783 14.4239 28.2059 14.0359 28.2059 14.2299C28.2059 14.4239 28.0014 14.6274 28.0014 14.6274C28.0014 14.6274 27.8782 14.7124 27.8782 14.6274C27.8782 14.6026 27.8758 14.6076 27.8665 14.6272C27.8439 14.6748 27.7805 14.808 27.6118 14.8093V14.9278H26.9192L27.0168 14.8093C27.0168 14.8093 26.8456 14.691 26.7788 14.6274C26.5597 14.5849 26.4893 14.4239 26.4893 14.4239ZM27.3718 13.7878C27.3798 13.7722 27.3844 13.7542 27.3844 13.7351C27.3844 13.6754 27.3396 13.627 27.2844 13.627C27.2292 13.627 27.1844 13.6754 27.1844 13.7351C27.1844 13.7609 27.1927 13.7845 27.2066 13.8031L26.8282 14.389L26.8676 14.4205L27.2458 13.8349C27.2577 13.8403 27.2707 13.8432 27.2844 13.8432C27.3039 13.8432 27.322 13.8372 27.3374 13.8268L27.7353 14.4209L27.7743 14.3886L27.3718 13.7878ZM26.4893 12.9103H27.1318L27.2266 12.7963C27.201 12.7767 27.1844 12.7445 27.1844 12.7081C27.1844 12.6484 27.2292 12.6 27.2844 12.6C27.3396 12.6 27.3844 12.6484 27.3844 12.7081C27.3844 12.7362 27.3745 12.7619 27.3582 12.7811L27.4881 12.9103H27.7783C27.7783 12.9103 28.2059 12.5224 28.2059 12.7164C28.2059 12.9103 28.0014 13.1139 28.0014 13.1139C28.0014 13.1139 27.8782 13.1989 27.8782 13.1139C27.8782 13.089 27.8758 13.0941 27.8665 13.1137C27.8439 13.1613 27.7805 13.2945 27.6118 13.2958V13.4143H26.9192L27.0168 13.2958C27.0168 13.2958 26.8456 13.1775 26.7788 13.1139C26.5597 13.0714 26.4893 12.9103 26.4893 12.9103ZM27.3718 12.2743C27.3798 12.2587 27.3844 12.2407 27.3844 12.2216C27.3844 12.1619 27.3396 12.1135 27.2844 12.1135C27.2292 12.1135 27.1844 12.1619 27.1844 12.2216C27.1844 12.2474 27.1927 12.271 27.2066 12.2896L26.8282 12.8755L26.8676 12.907L27.2458 12.3214C27.2577 12.3268 27.2707 12.3297 27.2844 12.3297C27.3039 12.3297 27.322 12.3237 27.3374 12.3133L27.7353 12.9074L27.7743 12.8751L27.3718 12.2743Z" fill="#FFD018"/>
<path fill-rule="evenodd" clip-rule="evenodd" d="M24.6397 12.5856L24.3034 13.6791C24.3034 13.6791 23.7399 14.4081 23.6359 14.7654C23.532 15.1226 23.475 15.36 23.5035 15.36C23.532 15.36 23.7622 15.2583 23.7622 15.0118C23.7622 14.7654 24.6397 13.9728 24.6397 13.9728L24.9016 12.5856H24.6397Z" fill="#FFC6B5"/>
<path fill-rule="evenodd" clip-rule="evenodd" d="M27.3718 10.8689C27.3799 10.8533 27.3844 10.8353 27.3844 10.8162C27.3844 10.7565 27.3397 10.7081 27.2844 10.7081C27.2292 10.7081 27.1844 10.7565 27.1844 10.8162C27.1844 10.842 27.1928 10.8656 27.2067 10.8842L26.8283 11.4701L26.8677 11.5017L27.2459 10.916C27.2577 10.9214 27.2708 10.9243 27.2844 10.9243C27.3039 10.9243 27.3221 10.9183 27.3374 10.9079L27.7354 11.502L27.7743 11.4697L27.3718 10.8689ZM27.3582 11.3757C27.3745 11.3565 27.3844 11.3309 27.3844 11.3027C27.3844 11.243 27.3397 11.1946 27.2844 11.1946C27.2292 11.1946 27.1844 11.243 27.1844 11.3027C27.1844 11.3391 27.2011 11.3713 27.2266 11.3909L27.1318 11.505H26.4894C26.4894 11.505 26.5598 11.666 26.7788 11.7085C26.8457 11.7721 27.0168 11.8904 27.0168 11.8904L26.9192 12.0089H27.6118V11.8904C27.7806 11.8891 27.8439 11.7559 27.8665 11.7083C27.8759 11.6887 27.8783 11.6837 27.8783 11.7085C27.8783 11.7935 28.0015 11.7085 28.0015 11.7085C28.0015 11.7085 28.2059 11.505 28.2059 11.311C28.2059 11.117 27.7783 11.505 27.7783 11.505H27.4882L27.3582 11.3757Z" fill="#FFD018"/>
<path fill-rule="evenodd" clip-rule="evenodd" d="M25.4601 12.1481C25.4695 12.168 25.4766 12.183 25.4766 12.2041C25.4766 12.2671 25.2094 12.3597 25.0166 12.3597C24.8238 12.3597 24.8994 12.2041 25.0166 12.1178C25.1338 12.0314 25.0071 11.8829 24.8994 11.8829C24.7971 11.8829 24.7975 11.7384 24.7978 11.6222C24.7978 11.6161 24.7978 11.61 24.7978 11.6041V11.1516C24.7978 10.9701 24.847 10.9913 24.941 11.032C24.9963 11.0559 25.0671 11.0865 25.1525 11.0865C25.296 11.0865 25.3039 11.1195 25.3255 11.209C25.3386 11.2634 25.3567 11.3386 25.4132 11.4399C25.5033 11.6012 25.4849 11.6384 25.4561 11.6968C25.437 11.7355 25.4132 11.7834 25.4132 11.8829C25.4132 12.0491 25.4413 12.1084 25.4601 12.1481ZM25.6981 13.3086L25.7549 12.6936C25.7549 12.6936 25.6981 12.4687 25.831 12.4687C25.9639 12.4687 26.1702 13.5442 26.2448 13.9755C26.2925 14.2512 26.2487 14.3024 26.1222 14.4502C26.0509 14.5335 25.9533 14.6475 25.831 14.8498C25.6276 15.1861 25.6408 15.383 25.6508 15.533C25.6575 15.6332 25.6628 15.7124 25.6013 15.7984C25.4583 15.9983 25.3996 15.8092 25.3424 15.6246C25.3382 15.6109 25.3339 15.5972 25.3297 15.5837C25.2751 15.411 25.5242 14.8877 25.6935 14.5323C25.7156 14.4858 25.7364 14.4422 25.7549 14.4026C25.9152 14.0603 25.9001 13.9409 25.831 13.7975C25.7619 13.6542 25.6981 13.3086 25.6981 13.3086Z" fill="#FFC6B5"/>
<path fill-rule="evenodd" clip-rule="evenodd" d="M26.0195 19.3696C26.0195 19.526 25.8999 19.6528 25.7525 19.6528C25.605 19.6528 25.4855 19.526 25.4855 19.3696C25.4855 19.2133 25.605 19.0865 25.7525 19.0865C25.8999 19.0865 26.0195 19.2133 26.0195 19.3696ZM24.5995 19.4483C24.4798 19.5488 24.3337 19.572 24.2734 19.5001C24.2131 19.4283 24.2613 19.2885 24.3811 19.188C24.5009 19.0875 24.6469 19.0643 24.7072 19.1361C24.7675 19.208 24.7193 19.3478 24.5995 19.4483Z" fill="#FFD018"/>
<path fill-rule="evenodd" clip-rule="evenodd" d="M24.951 10.7847C24.951 10.7847 24.6734 10.841 24.7659 10.9801C24.8585 11.1191 24.6453 11.0831 24.951 11.1011C25.2567 11.1191 25.3404 11.2304 25.2986 11.3126C25.2567 11.3948 25.2239 11.599 25.2986 11.722C25.3733 11.845 25.397 12.0591 25.529 11.952C25.6609 11.845 25.9144 11.698 25.8368 11.5053C25.7591 11.3126 25.8681 11.0885 25.6985 10.9801C25.529 10.8717 25.4911 10.938 25.3941 10.7847C25.297 10.6314 25.1541 10.5892 25.0526 10.6869C24.951 10.7847 24.951 10.7847 24.951 10.7847Z" fill="#A95601"/>
<path fill-rule="evenodd" clip-rule="evenodd" d="M24.896 12.1776C24.896 12.1776 24.338 12.8495 24.4293 13.0862C24.5207 13.3229 24.6573 13.3354 24.589 13.672C24.5207 14.0086 24.6305 14.529 24.4293 15.1909C24.2281 15.8529 24.0959 17.4062 24.162 17.4062C24.2281 17.4062 24.32 18.2641 24.241 18.649C24.162 19.034 23.6112 19.356 24.162 19.356C24.7128 19.356 24.7782 19.4323 24.9983 19.356C25.2184 19.2797 25.5307 19.5755 25.5307 19.356C25.5307 19.1364 25.5543 19.0915 25.722 19.0915C25.8898 19.0915 25.8813 19.0915 26.0299 19.0915C26.1784 19.0915 26.3731 19.2298 26.3731 18.9018C26.3731 18.5738 26.4094 17.869 26.2196 17.3217C26.0299 16.7744 26.0943 17.1239 25.9082 16.392C25.7979 15.9585 25.7128 15.7865 25.6457 15.635C25.5996 15.5308 25.4678 15.7138 25.4366 15.5506C25.4259 15.4953 25.5161 15.1707 25.517 15.129C25.523 14.8691 25.722 14.8249 25.722 14.378C25.722 13.8593 25.5977 13.2895 25.722 13.0044C25.8464 12.7193 26.1516 12.8907 26.0299 12.6134C25.9082 12.3361 25.8686 12.1776 25.6395 12.1776C25.4105 12.1776 24.896 12.1776 24.896 12.1776Z" fill="#F7FCFF"/>
<path d="M20.9868 20.1455L21.0803 20.0211C22.4163 21.2656 23.6515 21.8857 24.7851 21.8857C25.9199 21.8857 27.3015 21.2275 28.9273 19.9075L29.0131 20.0386C27.3647 21.3769 25.9563 22.0478 24.7851 22.0478C23.6127 22.0478 22.3469 21.4123 20.9868 20.1455Z" fill="#272727"/>
</g>
</g>
</svg>
