<svg width="31" height="23" viewBox="0 0 31 23" fill="none" xmlns="http://www.w3.org/2000/svg">
  <g clip-path="url(#clip0_208_843)">
    <path fill-rule="evenodd" clip-rule="evenodd" d="M0 0H31V23H0V0Z" fill="#7381A0"/>
    <g clip-path="url(#clip1_208_843)">
      <path d="M12.8 8.375C12.8 7.40977 13.6072 6.625 14.6 6.625H15.5C16.4928 6.625 17.3 7.40977 17.3 8.375V8.47344C17.3 9.06953 16.9878 9.62461 16.4731 9.94453L15.2862 10.6855C14.5775 11.1285 14.15 11.8914 14.15 12.709V12.75C14.15 13.234 14.5522 13.625 15.05 13.625C15.5478 13.625 15.95 13.234 15.95 12.75V12.7117C15.95 12.4875 16.0681 12.2797 16.2594 12.1594L17.4462 11.4184C18.4756 10.773 19.1 9.66563 19.1 8.47344V8.375C19.1 6.4418 17.4884 4.875 15.5 4.875H14.6C12.6116 4.875 11 6.4418 11 8.375C11 8.85898 11.4022 9.25 11.9 9.25C12.3978 9.25 12.8 8.85898 12.8 8.375ZM15.05 17.125C15.3484 17.125 15.6345 17.0098 15.8455 16.8046C16.0565 16.5995 16.175 16.3213 16.175 16.0312C16.175 15.7412 16.0565 15.463 15.8455 15.2579C15.6345 15.0527 15.3484 14.9375 15.05 14.9375C14.7516 14.9375 14.4655 15.0527 14.2545 15.2579C14.0435 15.463 13.925 15.7412 13.925 16.0312C13.925 16.3213 14.0435 16.5995 14.2545 16.8046C14.4655 17.0098 14.7516 17.125 15.05 17.125Z" fill="#0D0D0F"/>
    </g>
  </g>
  <defs>
    <clipPath id="clip0_208_843">
      <rect width="31" height="23" fill="white"/>
    </clipPath>
    <clipPath id="clip1_208_843">
      <rect width="9" height="14" fill="white" transform="translate(11 4)"/>
    </clipPath>
  </defs>
</svg>
