<svg width="46" height="46" viewBox="0 0 46 46" fill="none" xmlns="http://www.w3.org/2000/svg">
<g clip-path="url(#clip0_42_1073)">
<g filter="url(#filter0_dd_42_1073)">
<path d="M41 3H5C3.89543 3 3 3.89543 3 5V41C3 42.1046 3.89543 43 5 43H41C42.1046 43 43 42.1046 43 41V5C43 3.89543 42.1046 3 41 3Z" fill="white"/>
</g>
<path d="M23 34C29.0751 34 34 29.0751 34 23C34 16.9249 29.0751 12 23 12C16.9249 12 12 16.9249 12 23C12 29.0751 16.9249 34 23 34Z" fill="#FF4500"/>
<path d="M30.3333 23C30.3333 22.1123 29.6129 21.3918 28.7251 21.3918C28.2877 21.3918 27.9017 21.5591 27.6187 21.8421C26.5251 21.0573 25.007 20.5427 23.3345 20.4784L24.0678 17.0433L26.4479 17.545C26.4737 18.1497 26.9754 18.6386 27.593 18.6386C28.2234 18.6386 28.738 18.124 28.738 17.4936C28.738 16.8632 28.2234 16.3485 27.593 16.3485C27.1427 16.3485 26.7567 16.6059 26.5766 16.9918L23.9134 16.4257C23.8362 16.4129 23.7591 16.4257 23.6947 16.4643C23.6304 16.5029 23.5918 16.5673 23.5661 16.6444L22.7555 20.4784C21.0444 20.5298 19.5134 21.0316 18.407 21.8421C18.124 21.5719 17.7251 21.3918 17.3006 21.3918C16.4129 21.3918 15.6924 22.1123 15.6924 23C15.6924 23.6561 16.0783 24.2094 16.6444 24.4667C16.6187 24.6211 16.6058 24.7883 16.6058 24.9556C16.6058 27.4257 19.4748 29.4199 23.0257 29.4199C26.5766 29.4199 29.4456 27.4257 29.4456 24.9556C29.4456 24.7883 29.4327 24.6339 29.407 24.4795C29.9345 24.2222 30.3333 23.6561 30.3333 23ZM19.3333 24.145C19.3333 23.5146 19.8479 23 20.4783 23C21.1088 23 21.6234 23.5146 21.6234 24.145C21.6234 24.7754 21.1088 25.2901 20.4783 25.2901C19.8479 25.2901 19.3333 24.7754 19.3333 24.145ZM25.7275 27.1684C24.9427 27.9532 23.4503 28.0047 23.0129 28.0047C22.5754 28.0047 21.0702 27.9404 20.2982 27.1684C20.1824 27.0526 20.1824 26.8597 20.2982 26.7439C20.414 26.6281 20.607 26.6281 20.7228 26.7439C21.2117 27.2328 22.2667 27.4129 23.0257 27.4129C23.7848 27.4129 24.8269 27.2328 25.3286 26.7439C25.4444 26.6281 25.6374 26.6281 25.7532 26.7439C25.8433 26.8725 25.8433 27.0526 25.7275 27.1684ZM25.5216 25.2901C24.8912 25.2901 24.3766 24.7754 24.3766 24.145C24.3766 23.5146 24.8912 23 25.5216 23C26.152 23 26.6667 23.5146 26.6667 24.145C26.6667 24.7754 26.152 25.2901 25.5216 25.2901Z" fill="white"/>
</g>
<defs>
<filter id="filter0_dd_42_1073" x="2" y="2" width="42" height="43" filterUnits="userSpaceOnUse" color-interpolation-filters="sRGB">
<feFlood flood-opacity="0" result="BackgroundImageFix"/>
<feColorMatrix in="SourceAlpha" type="matrix" values="0 0 0 0 0 0 0 0 0 0 0 0 0 0 0 0 0 0 127 0" result="hardAlpha"/>
<feOffset dy="1"/>
<feGaussianBlur stdDeviation="0.5"/>
<feColorMatrix type="matrix" values="0 0 0 0 0 0 0 0 0 0 0 0 0 0 0 0 0 0 0.168 0"/>
<feBlend mode="normal" in2="BackgroundImageFix" result="effect1_dropShadow_42_1073"/>
<feColorMatrix in="SourceAlpha" type="matrix" values="0 0 0 0 0 0 0 0 0 0 0 0 0 0 0 0 0 0 127 0" result="hardAlpha"/>
<feOffset/>
<feGaussianBlur stdDeviation="0.5"/>
<feColorMatrix type="matrix" values="0 0 0 0 0 0 0 0 0 0 0 0 0 0 0 0 0 0 0.084 0"/>
<feBlend mode="normal" in2="effect1_dropShadow_42_1073" result="effect2_dropShadow_42_1073"/>
<feBlend mode="normal" in="SourceGraphic" in2="effect2_dropShadow_42_1073" result="shape"/>
</filter>
<clipPath id="clip0_42_1073">
<rect width="42" height="43" fill="white" transform="translate(2 2)"/>
</clipPath>
</defs>
</svg>
